<?xml version="1.0" encoding="UTF-8" standalone="no"?>
<!-- Created with Inkscape (http://www.inkscape.org/) -->

<svg
   xmlns:dc="http://purl.org/dc/elements/1.1/"
   xmlns:cc="http://creativecommons.org/ns#"
   xmlns:rdf="http://www.w3.org/1999/02/22-rdf-syntax-ns#"
   xmlns:svg="http://www.w3.org/2000/svg"
   xmlns="http://www.w3.org/2000/svg"
   xmlns:sodipodi="http://sodipodi.sourceforge.net/DTD/sodipodi-0.dtd"
   xmlns:inkscape="http://www.inkscape.org/namespaces/inkscape"
   version="1.1"
   id="svg50"
   width="582.47559"
   height="222.68799"
   viewBox="0 0 582.47558 222.68798"
   sodipodi:docname="LogoSantafe.svg"
   inkscape:version="0.92.3 (2405546, 2018-03-11)"
   inkscape:export-filename="/home/administrador/Escritorio/paquetes3.0/gsf_grafica_institucional/sreensavers/logo-GSF2.png"
   inkscape:export-xdpi="96"
   inkscape:export-ydpi="96">
  <metadata
     id="metadata56">
    <rdf:RDF>
      <cc:Work
         rdf:about="">
        <dc:format>image/svg+xml</dc:format>
        <dc:type
           rdf:resource="http://purl.org/dc/dcmitype/StillImage" />
        <dc:title></dc:title>
      </cc:Work>
    </rdf:RDF>
  </metadata>
  <defs
     id="defs54" />
  <sodipodi:namedview
     pagecolor="#ffffff"
     bordercolor="#666666"
     borderopacity="1"
     objecttolerance="10"
     gridtolerance="10"
     guidetolerance="10"
     inkscape:pageopacity="0"
     inkscape:pageshadow="2"
     inkscape:window-width="1364"
     inkscape:window-height="558"
     id="namedview52"
     showgrid="false"
     fit-margin-top="0"
     fit-margin-left="0"
     fit-margin-right="0"
     fit-margin-bottom="0"
     inkscape:zoom="1.1705326"
     inkscape:cx="-13.757303"
     inkscape:cy="82.150472"
     inkscape:window-x="0"
     inkscape:window-y="28"
     inkscape:window-maximized="1"
     inkscape:current-layer="g113" />
  <g
     id="g113"
     transform="matrix(1.6108247,0,0,1.6108247,483.88821,248.57469)">
    <path
       style="fill:#d1d0d0;stroke-width:0.31999999"
       d="m -300.71781,-29.15622 c 0,-11.92911 0.0558,-13.42716 0.50617,-13.6 0.66173,-0.25393 122.80593,-0.25393 123.46766,0 0.44998,0.17267 0.50617,1.62628 0.50617,13.09382 0,7.09478 -0.0874,13.12737 -0.19423,13.40577 -0.1762,0.45915 -5.95758,0.50617 -62.24,0.50617 h -62.04577 z m 247.87424,12.89959 c -0.10683,-0.2784 -0.19423,-6.17211 -0.19423,-13.09715 0,-11.01967 0.0627,-12.65372 0.50285,-13.09382 0.45366,-0.45366 6.52163,-0.50286 62.01601,-0.50286 47.41688,0 61.60114,0.088 61.89714,0.384 0.28627,0.28627 0.384,3.74756 0.384,13.6 v 13.216 H 9.55644 c -56.42833,0 -62.22381,-0.047 -62.40001,-0.50617 z m -140.19424,-56.122291 c -1.232,-0.326272 -2.9504,-0.900541 -3.81867,-1.276157 -2.13539,-0.923776 -5.62133,-3.449222 -5.62133,-4.072467 0,-0.573421 4.34827,-5.862915 4.81966,-5.862915 0.16917,0 1.13395,0.563984 2.14396,1.253299 4.86967,3.323459 10.95528,3.879392 12.7349,1.163357 0.7448,-1.136723 0.29895,-2.675373 -0.99407,-3.430538 -0.52752,-0.308089 -2.82783,-1.088003 -5.11179,-1.733136 -7.30439,-2.063225 -9.96783,-3.680732 -11.54778,-7.012982 -0.60605,-1.278218 -0.75925,-2.13025 -0.76175,-4.236566 -0.007,-5.541384 2.78467,-9.250504 8.15687,-10.839184 2.44603,-0.72335 7.22245,-0.71072 10.05442,0.0266 3.10347,0.80801 8.02558,3.45496 8.02558,4.31592 0,0.4884 -3.92788,6.093238 -4.27016,6.093238 -0.18241,0 -1.63625,-0.644726 -3.23075,-1.432726 -5.2936,-2.616092 -10.09909,-2.245402 -10.09909,0.77902 0,2.104583 0.32394,2.310202 6.57404,4.172874 5.53608,1.649882 8.08687,2.877997 9.76988,4.703846 1.91244,2.074752 2.34329,3.292375 2.35554,6.656986 0.009,2.440064 -0.1159,3.151078 -0.81685,4.654602 -1.52144,3.263475 -3.99132,5.256992 -7.75467,6.25902 -2.38924,0.63616 -7.87373,0.54202 -10.60794,-0.182083 z m -95.76271,0.05985 c -0.31725,-0.214676 -0.38516,-4.071405 -0.32,-18.171949 l 0.0827,-17.89944 8.23462,-0.0854 c 9.55276,-0.0991 11.45406,0.16449 15.44538,2.14093 4.12044,2.04039 7.11952,5.37726 8.794,9.784462 0.98649,2.596429 1.22965,7.471395 0.52273,10.480006 -1.44471,6.148666 -6.09105,11.000407 -12.51673,13.070068 -2.05448,0.661731 -2.96881,0.731107 -11.04,0.837654 -4.84,0.06389 -8.98122,-0.0065 -9.20271,-0.156341 z m 18.48271,-8.75537 c 3.5891,-1.663597 5.5298,-4.765238 5.56921,-8.900752 0.043,-4.509533 -2.01689,-8.022179 -5.6608,-9.653216 -1.46725,-0.656751 -2.16998,-0.747711 -5.82841,-0.754421 l -4.16,-0.008 -0.0848,9.756696 c -0.0466,5.366179 -0.009,9.955146 0.0844,10.197699 0.13529,0.352554 0.98667,0.414573 4.24481,0.30921 3.52722,-0.11408 4.31238,-0.241574 5.83557,-0.9476 z m 21.19729,8.740499 c -0.31738,-0.203049 -0.38519,-4.050342 -0.32,-18.157078 l 0.0827,-17.89944 h 13.6 13.6 l 0.091,3.65432 c 0.0674,2.70829 -0.0154,3.72184 -0.32,3.9151 -0.22604,0.14343 -4.47899,0.26299 -9.45099,0.26568 l -9.04,0.005 v 3.040001 3.04 l 7.92,0.0049 c 4.356,0.0026 8.10495,0.12225 8.33099,0.265677 0.30459,0.193267 0.38744,1.206809 0.32,3.915101 l -0.091,3.654321 -8.24,0.0854 -8.24,0.0854 v 3.194602 3.194598 l 9.2,0.0049 c 5.06,0.0026 9.38495,0.12225 9.61099,0.265677 0.30459,0.193267 0.38744,1.206809 0.32,3.915101 l -0.091,3.654322 -13.44,0.07708 c -7.392,0.04239 -13.62122,-0.03886 -13.84271,-0.180562 z m 78.68176,-0.169468 c -0.27746,-0.334324 1.3583,-4.469591 7.18087,-18.153508 4.1471,-9.746312 7.71117,-17.829272 7.92014,-17.962152 0.20897,-0.13288 1.90563,-0.2438 3.77035,-0.24649 2.83549,-0.004 3.4695,0.0868 3.87366,0.5551 0.37665,0.43647 13.51824,30.960845 14.93043,34.67937 0.52141,1.372956 1e-5,1.56063 -4.33579,1.56063 -4.5791,0 -4.02975,0.41248 -5.99809,-4.503638 l -1.33584,-3.336362 -7.21571,-0.08589 -7.21572,-0.08589 -1.35048,3.285888 c -2.09147,5.088842 -1.62521,4.725892 -6.07106,4.725892 -2.79834,0 -3.8877,-0.113571 -4.15276,-0.43295 z m 22.46457,-15.48705 c 0.14798,-0.251181 -3.18464,-8.688237 -3.61012,-9.139616 -0.31098,-0.329904 -3.92888,8.401597 -3.71363,8.962534 0.11808,0.307709 1.08079,0.417082 3.67121,0.417082 1.93113,0 3.57478,-0.108 3.65254,-0.24 z m 20.39285,15.310755 c -0.52505,-0.981049 -0.46087,-34.618305 0.0674,-35.340785 0.34925,-0.47763 0.90118,-0.54002 4.08,-0.46116 l 3.6761,0.0912 7.68001,10.141116 c 4.224,5.577613 7.78597,10.149613 7.9155,10.16 0.12953,0.0104 0.27353,-4.55312 0.32,-10.14112 l 0.0845,-10.159996 h 4.16 4.16 l 0.0827,17.723919 c 0.0599,12.823495 -0.0173,17.844493 -0.27919,18.16 -0.26269,0.316599 -1.26742,0.436081 -3.66693,0.436081 h -3.30508 l -8.04593,-10.56 c -4.42526,-5.808 -8.17438,-10.56 -8.33137,-10.56 -0.15971,0 -0.32259,4.61583 -0.3698,10.48 l -0.0844,10.48 -3.90353,0.08972 c -3.60276,0.0828 -3.92947,0.04127 -4.24,-0.538963 z m 48.29562,-0.211587 c -0.18476,-0.485933 -0.31208,-6.292598 -0.31208,-14.232074 v -13.411244 l -5.2,-0.0879 -5.2,-0.0879 v -3.84 -3.84 l 14.72,-0.084 c 13.55428,-0.0773 14.75167,-0.0408 15.12,0.46116 0.4448,0.60617 0.56085,6.39418 0.14144,7.05433 -0.17507,0.27556 -1.76134,0.41774 -5.3551,0.48 l -5.10634,0.0885 -0.0835,13.731399 c -0.0577,9.488151 -0.19339,13.863847 -0.43918,14.16 -0.26077,0.314205 -1.37229,0.428602 -4.16445,0.428602 -3.79399,0 -3.80994,-0.0032 -4.12081,-0.820832 z m 21.98125,0.607498 c -0.11733,-0.117332 -0.21333,-0.446362 -0.21333,-0.731172 0,-0.594857 14.18675,-34.042374 14.90218,-35.134254 0.44208,-0.6747 0.69408,-0.72092 3.90519,-0.71634 1.88795,0.003 3.61231,0.119 3.83193,0.25845 0.58153,0.36927 15.506,35.584912 15.30403,36.111248 -0.13595,0.354266 -1.02809,0.426004 -4.41156,0.354736 l -4.24115,-0.08933 -0.96531,-2.260963 c -0.53092,-1.24353 -1.27693,-3.00753 -1.65778,-3.92 l -0.69247,-1.659037 h -7.02835 c -5.24666,0 -7.10568,0.101402 -7.33339,0.4 -0.16777,0.22 -0.92291,1.912 -1.67808,3.76 -0.75518,1.848 -1.53554,3.465795 -1.73414,3.595101 -0.45133,0.293843 -7.69686,0.322477 -7.98777,0.03155 z m 22.31988,-15.743328 c 0.16912,-0.273632 -3.14588,-8.618157 -3.60935,-9.085482 -0.30253,-0.305043 -3.97235,8.640083 -3.7153,9.055994 0.23565,0.381296 7.09017,0.408892 7.32465,0.0295 z M 0.7862,-72.45446 c -0.55406,-0.554054 -0.55406,-35.15795 0,-35.712 0.2864,-0.28641 3.78061,-0.384 13.74874,-0.384 15.51833,0 14.02726,-0.42519 14.02726,4 0,4.35475 0.8808,4 -9.93126,4 H 9.3622 v 3.354598 3.354599 l 8.24,0.0854 8.24,0.0854 v 3.84 3.84 l -8.24,0.0854 -8.24,0.0854 v 6.255635 c 0,3.700218 -0.13532,6.50848 -0.33126,6.874599 -0.29869,0.558105 -0.70142,0.618963 -4.096,0.618963 -2.50147,0 -3.8936,-0.128854 -4.14874,-0.384 z m 33.28342,0.0034 c -0.55715,-0.557158 -0.56048,-35.15837 -0.004,-35.71542 0.55191,-0.5519 26.5201,-0.5519 27.072,0 0.61335,0.61334 0.51533,6.47896 -0.11884,7.11314 -0.43357,0.43356 -1.75655,0.50286 -9.6,0.50286 h -9.09716 v 3.039999 3.04 h 8.16794 8.1679 l 0.3121,0.820832 c 0.40256,1.058864 0.40397,5.295795 0.003,6.352819 l -0.30998,0.815319 -8.09002,0.08551 -8.09002,0.08552 -0.0916,3.12 -0.0916,3.12 9.21158,0.0049 c 5.06637,0.0026 9.39654,0.12225 9.62256,0.265677 0.30461,0.193267 0.38746,1.20681 0.32,3.915101 l -0.092,3.654323 -13.45258,0.08342 c -10.19635,0.06323 -13.54637,-0.01037 -13.84,-0.304 z m -211.10743,-44.94117 c -7.49752,-1.16196 -13.60972,-6.37148 -15.71979,-13.39823 -0.86225,-2.87138 -0.77585,-8.29038 0.17602,-11.04 1.58873,-4.58929 4.92591,-8.56546 8.97453,-10.69295 4.90097,-2.57539 13.4746,-2.69064 18.56924,-0.24962 3.15699,1.51263 6.78121,5.06547 8.24182,8.07949 1.85493,3.82771 2.4731,8.52289 1.64936,12.52733 -0.50202,2.44043 -2.57601,6.5482 -4.27972,8.47645 -3.3068,3.74261 -8.4105,6.09864 -13.69389,6.32154 -1.62666,0.0686 -3.38957,0.0578 -3.91757,-0.024 z m 7.43111,-9.02288 c 3.0652,-1.58644 4.86105,-4.11883 5.54225,-7.81535 0.90542,-4.9132 -1.8837,-10.08961 -6.34264,-11.7715 -2.65591,-1.0018 -6.29246,-0.79379 -8.66115,0.49541 -3.21832,1.75163 -4.89221,4.64036 -5.09695,8.79609 -0.18525,3.76003 0.60726,5.89038 3.10757,8.35346 2.35811,2.323 3.81386,2.86293 7.37981,2.73713 2.03348,-0.0717 3.06102,-0.27245 4.07111,-0.79524 z m 129.07194,8.74991 c -6.76614,-1.54043 -12.28587,-6.79762 -13.98666,-13.32139 -0.64511,-2.47446 -0.71657,-7.14996 -0.14617,-9.56387 1.21648,-5.14815 5.10878,-10.09583 9.62979,-12.24089 4.93073,-2.33945 13.27233,-2.37295 18.08,-0.0726 2.7097,1.29653 5.03365,3.19849 4.89707,4.00788 -0.14453,0.85654 -4.43979,5.74561 -5.04776,5.74561 -0.28874,0 -1.02095,-0.37138 -1.62714,-0.82528 -2.40974,-1.80436 -4.17884,-2.47717 -6.9095,-2.62776 -2.27552,-0.12549 -2.8253,-0.0436 -4.32,0.64348 -2.48573,1.14262 -3.63789,2.25661 -4.82235,4.66259 -0.96425,1.95868 -1.0503,2.38319 -1.05008,5.18024 1.9e-4,2.47467 0.13412,3.33691 0.71326,4.59217 1.13609,2.46243 2.49517,3.92899 4.62937,4.99546 1.63452,0.81678 2.3355,0.9788 4.22824,0.97732 3.4902,-0.003 4.28633,-0.32723 9.0151,-3.6743 0.33908,-0.24001 1.06359,0.29732 3.01017,2.23249 1.40999,1.40172 2.56362,2.71107 2.56362,2.90966 0,0.54233 -3.15958,3.41929 -4.8,4.37067 -3.65506,2.11977 -9.74578,2.99004 -14.05696,2.00852 z m -96.5459,-0.0902 c -0.39293,-0.25459 -14.51715,-35.10362 -14.51715,-35.81853 0,-0.34919 0.91297,-0.41643 4.68639,-0.34512 l 4.68639,0.0885 1.97924,5.28 c 1.08859,2.904 3.02959,8.12145 4.31334,11.59434 1.28375,3.47288 2.43536,6.25174 2.55914,6.17524 0.12379,-0.0765 2.14621,-5.32995 4.49429,-11.67434 l 4.26923,-11.53524 h 4.58599 c 3.1798,0 4.58599,0.11023 4.58599,0.35948 0,0.64209 -13.85033,34.98316 -14.34215,35.56052 -0.39657,0.46554 -1.02196,0.55917 -3.70744,0.5551 -1.77672,-0.003 -3.39369,-0.11069 -3.59326,-0.24 z m -125.02381,-0.28843 c -0.11734,-0.11734 -0.21334,-8.26092 -0.21334,-18.09685 v -17.88352 l 10,0.0968 10,0.0969 1.79968,0.88416 c 2.69352,1.3233 4.5793,3.14959 5.78856,5.60596 1.00453,2.04048 1.05176,2.30198 1.05176,5.82315 0,3.30256 -0.0867,3.87165 -0.83235,5.46133 -1.0454,2.22881 -2.41809,3.80304 -4.45708,5.11146 -2.61939,1.68085 -5.02096,2.26467 -10.15057,2.46757 l -4.56,0.18037 v 4.849 c 0,3.34478 -0.11912,4.96812 -0.384,5.233 -0.41136,0.41136 -7.6484,0.56493 -8.04266,0.17067 z m 16.93181,-18.9535 c 1.5751,-0.71537 2.55,-1.88073 2.83233,-3.38564 0.45341,-2.41692 -0.94809,-4.7762 -3.30523,-5.56399 -0.59826,-0.19995 -2.65026,-0.36354 -4.56,-0.36354 h -3.47225 v 4.96 4.96 l 3.6,-0.007 c 2.81026,-0.006 3.88632,-0.13706 4.90515,-0.5998 z m 16.76693,18.346 c -0.34101,-0.89692 -0.44077,-33.38609 -0.10635,-34.63461 l 0.19699,-0.73544 10.92644,0.0954 10.92644,0.0954 2.11776,1.0431 c 3.90006,1.92096 5.97649,5.17777 6.26667,9.82906 0.30826,4.94097 -1.68662,8.97823 -5.55707,11.24647 -0.77163,0.4522 -1.40296,0.9575 -1.40296,1.12288 0,0.16538 1.737,2.82377 3.86001,5.90755 2.123,3.08377 3.81303,5.85078 3.75562,6.1489 -0.0924,0.47964 -0.63807,0.54204 -4.74001,0.54204 h -4.63562 l -2.47574,-3.68 c -1.36166,-2.024 -3.12655,-4.58604 -3.92197,-5.69342 l -1.44623,-2.01343 -2.47803,0.0934 -2.47803,0.0934 -0.0882,5.25709 c -0.0539,3.21337 -0.22465,5.42151 -0.43918,5.68001 -0.25495,0.3072 -1.39308,0.42291 -4.15972,0.42291 -3.79399,0 -3.80995,-0.003 -4.12082,-0.82083 z m 18.3016,-18.70873 c 0.65839,-0.18287 1.6067,-0.81918 2.16,-1.44935 0.82131,-0.93542 0.98632,-1.39184 0.98632,-2.72812 0,-1.98773 -0.65671,-3.31177 -2.00541,-4.04325 -0.82468,-0.44727 -2.02468,-0.58404 -5.91459,-0.67414 l -4.88,-0.11302 v 4.66872 4.66872 l 4.24,-0.002 c 2.332,-9.9e-4 4.76816,-0.14848 5.41368,-0.32777 z m 100.00875,19.32532 c -0.12233,-0.12233 -0.22242,-8.26243 -0.22242,-18.08909 v -17.86667 h 4.32266 4.32266 l -0.0827,18 -0.0827,18 -4.01758,0.0891 c -2.20966,0.049 -4.11766,-0.011 -4.24,-0.13333 z m 16.78187,-0.22239 c -0.27209,-0.32785 -0.34794,-5.08652 -0.28705,-18.00948 l 0.08276,-17.56389 4,-0.0865 4,-0.0864 7.65232,10.073 c 4.20878,5.54015 7.77278,9.99855 7.92,9.90756 0.14722,-0.091 0.26768,-4.62093 0.26768,-10.06654 v -9.90112 h 4.12576 c 3.46696,0 4.15678,0.0808 4.32,0.50617 0.35141,0.91577 0.22059,34.36667 -0.13702,35.03487 -0.29456,0.55039 -0.69607,0.61896 -3.62422,0.61896 -3.00333,0 -3.35182,-0.0633 -3.96211,-0.72 -0.36803,-0.396 -4.00585,-5.112 -8.08404,-10.48 -4.07819,-5.368 -7.5442,-9.80734 -7.70223,-9.8652 -0.16501,-0.0604 -0.32327,4.36722 -0.37174,10.4 l -0.0844,10.5052 -3.87296,0.0895 c -3.00352,0.0694 -3.95597,-0.0106 -4.24275,-0.35611 z m 77.72697,-0.19233 c -0.39933,-0.74616 -0.45825,-34.52547 -0.0613,-35.15101 0.1946,-0.30668 1.30197,-0.3873 4.39509,-0.32 l 4.13495,0.09 0.0827,17.56389 c 0.0599,12.70517 -0.0174,17.68454 -0.27918,18 -0.26825,0.32322 -1.3429,0.43611 -4.1515,0.43611 -3.41912,0 -3.82193,-0.0605 -4.12081,-0.61896 z m 13.97117,0.41472 c -0.12234,-0.12233 -0.22243,-0.423 -0.22243,-0.66813 0,-0.72448 14.7044,-35.07959 15.13032,-35.35022 0.21432,-0.13619 2.00636,-0.24981 3.9823,-0.25251 3.37861,-0.005 3.62005,0.038 4.05307,0.7151 1.01402,1.58551 14.95431,34.87421 14.78692,35.31038 -0.14765,0.38481 -0.93363,0.45236 -4.40941,0.37895 l -4.2297,-0.0893 -1.62749,-3.84 -1.62748,-3.84 H 17.0422 9.86366 l -1.62745,3.84 -1.62745,3.84 -4.00085,0.0891 c -2.20047,0.049 -4.10095,-0.011 -4.22328,-0.13333 z m 22.31376,-15.75725 c 0.1777,-0.28752 -3.3656,-9.31113 -3.65619,-9.31113 -0.29059,0 -3.8339,9.02361 -3.6562,9.31113 0.2271,0.36746 7.08529,0.36746 7.31239,0 z"
       id="path74"
       inkscape:connector-curvature="0" />
    <path
       style="fill:#a19fa0;stroke-width:0.31999999"
       d="m -300.50448,-15.96379 c -0.11733,-0.11734 -0.21333,-6.09334 -0.21333,-13.28 v -13.06667 h 62.08 62.08 v 13.28 13.28 h -61.86666 c -34.02667,0 -61.96267,-0.096 -62.08001,-0.21333 z M -52.3978,-29.03046 v -13.28 h 61.92 61.92 v 13.28 13.28 h -61.92 -61.92 z m -140.67822,-43.657059 c -3.66993,-0.987165 -9.08179,-4.054323 -9.08179,-5.147079 0,-0.324572 3.77884,-4.87759 4.29844,-5.179059 0.21321,-0.123709 1.2309,0.341101 2.28312,1.042778 3.89555,2.597744 8.57669,3.545817 11.38152,2.305107 2.53653,-1.122029 2.88039,-3.595139 0.7038,-5.061939 -0.55257,-0.372378 -2.85467,-1.210215 -5.11578,-1.861859 -7.59804,-2.189741 -10.0638,-3.634112 -11.51151,-6.743095 -0.59395,-1.27552 -0.754,-2.164278 -0.75646,-4.20079 -0.004,-3.368875 0.63197,-5.169935 2.57755,-7.298705 4.22431,-4.62207 12.66366,-5.22384 19.87015,-1.41684 2.19002,1.15693 3.24056,2.08523 2.93968,2.59762 -0.81583,1.38929 -3.36013,5.013816 -3.64169,5.187832 -0.1878,0.116067 -1.66611,-0.455488 -3.28514,-1.270122 -2.27995,-1.14719 -3.41928,-1.52385 -5.053,-1.67051 -3.46401,-0.31098 -5.41068,0.72015 -5.41068,2.86596 0,2.11544 0.78784,2.617798 6.91557,4.409648 6.77641,1.981536 9.38355,3.532061 10.92912,6.499795 0.74035,1.421581 0.85298,2.019319 0.85142,4.518317 -0.002,3.635197 -0.7688,5.53497 -3.13696,7.774675 -2.49044,2.355354 -4.53879,3.038522 -9.47915,3.161504 -3.16935,0.0789 -4.4731,-0.02768 -6.27821,-0.513238 z m -95.64485,-0.07657 c -0.0898,-0.234502 -0.12581,-8.274368 -0.0801,-17.866368 l 0.0831,-17.440003 8.07418,-0.0855 c 6.21097,-0.0658 8.61089,0.0255 10.4,0.39555 8.45816,1.74932 14.32582,8.786604 14.32582,17.181417 0,3.252182 -0.46582,5.376649 -1.77792,8.108518 -2.02904,4.224579 -5.60887,7.280595 -10.55428,9.009933 -2.50964,0.877584 -2.68078,0.892662 -11.42772,1.006867 -7.18313,0.09379 -8.91112,0.03447 -9.04314,-0.310432 z m 17.81874,-7.63696 c 4.487,-1.533699 7.26972,-6.718138 6.36,-11.849232 -0.72909,-4.112253 -3.29774,-7.059722 -7.07667,-8.120319 -2.51689,-0.7064 -8.79296,-0.70202 -9.06477,0.006 -0.26197,0.682684 -0.24922,19.45821 0.0137,20.143321 0.1852,0.482617 0.66608,0.524345 4.4,0.381801 2.30564,-0.08802 4.72113,-0.340867 5.36775,-0.561888 z m 21.85249,7.614109 c -0.0849,-0.221933 -0.11704,-8.251517 -0.0713,-17.843517 l 0.0831,-17.440003 h 13.28 13.28 v 3.52 3.52 l -9.28,0.16 -9.28,0.16 v 3.200003 3.2 l 8.16,0.16 8.16,0.16 v 3.52 3.52 l -8.16,0.16 -8.16,0.16 v 3.36 3.36 l 9.44,0.16 9.44,0.16 v 3.52 3.52 l -13.36869,0.08352 c -10.52374,0.06575 -13.40156,-0.0022 -13.52314,-0.32 z m 78.89183,-0.218915 c 0,-0.638218 14.22196,-34.396135 14.80616,-35.144605 0.21551,-0.27611 1.38444,-0.4 3.77414,-0.4 2.41986,0 3.53889,0.1204 3.7176,0.4 0.64748,1.01301 14.8221,34.644477 14.8221,35.167709 0,0.543424 -0.31622,0.592294 -3.83262,0.592294 -4.47594,0 -4.10492,0.270781 -5.96499,-4.353456 -0.62975,-1.5656 -1.29254,-3.026544 -1.47288,-3.246544 -0.24457,-0.298368 -2.15177,-0.4 -7.50639,-0.4 h -7.17852 l -0.75431,1.68 c -0.41487,0.924 -1.16675,2.688 -1.67084,3.92 l -0.91653,2.24 -3.91146,0.08985 c -3.71824,0.08541 -3.91146,0.05848 -3.91146,-0.545248 z m 22.70804,-14.984602 c -0.0308,-0.617862 -4.03403,-9.84 -4.27144,-9.84 -0.19894,0 -4.33704,9.504397 -4.35388,10 -0.002,0.044 1.94128,0.08 4.31728,0.08 2.376,0 4.31462,-0.108 4.30804,-0.24 z m 20.24575,15.225789 c -0.30185,-0.301853 -0.39379,-4.369648 -0.39379,-17.423616 0,-9.366407 0.0874,-17.257606 0.19424,-17.536006 0.16119,-0.42004 0.80657,-0.50617 3.7927,-0.50617 h 3.59847 l 7.90276,10.400003 c 4.34653,5.72 8.03782,10.4 8.20287,10.4 0.17885,0 0.33421,-4.169622 0.38453,-10.32 l 0.0844,-10.320003 h 3.84 3.84 v 17.760003 17.76 l -3.2,0.08108 c -1.76,0.0446 -3.35313,-0.02739 -3.5403,-0.16 -0.18715,-0.132596 -3.98785,-5.032391 -8.44598,-10.888432 -4.45813,-5.856045 -8.193,-10.560234 -8.29971,-10.453757 -0.10671,0.106477 -0.26602,4.969782 -0.35402,10.80735 l -0.15996,10.613759 -3.52621,0.08979 c -2.47011,0.0629 -3.64414,-0.02816 -3.92,-0.304001 z m 48.35124,-0.01584 c -0.14576,-0.225475 -0.33702,-6.601949 -0.42502,-14.169949 l -0.16,-13.760003 -5.21041,-0.088 -5.21041,-0.088 0.0904,-3.59203 0.0904,-3.59202 14.63309,-0.0832 14.6331,-0.0832 0.181,0.72323 c 0.0996,0.39777 0.13867,2.01922 0.0869,3.60322 l -0.0941,2.88 -4.64,0.0777 c -2.552,0.0427 -4.96249,0.1531 -5.35664,0.24525 l -0.71664,0.16756 -0.0834,13.994751 -0.0834,13.994746 -3.73498,0.08994 c -2.76628,0.06661 -3.80371,-0.01638 -4,-0.32 z m 21.77413,-0.081 c -0.19444,-0.506704 14.15783,-34.560222 14.86305,-35.265442 0.57681,-0.57681 6.87848,-0.59697 7.34446,-0.0235 0.61699,0.75931 15.10978,35.186885 14.9329,35.47307 -0.0975,0.157815 -1.89351,0.286935 -3.99107,0.286935 -4.45305,0 -4.04755,0.300681 -5.91112,-4.383063 -0.64404,-1.618688 -1.35705,-3.097488 -1.58447,-3.28623 -0.27417,-0.227539 -2.82002,-0.314109 -7.5559,-0.256934 l -7.14242,0.08623 -1.45867,3.52 c -0.80227,1.936 -1.57454,3.7 -1.71617,3.92 -0.40194,0.624345 -7.53875,0.559171 -7.78059,-0.07106 z m 22.60263,-15.128949 c 0.004,-0.484342 -3.9831,-10 -4.18961,-10 -0.24608,0 -4.13217,9.263725 -4.13217,9.85032 0,0.286256 1.10409,0.38968 4.16,0.38968 2.288,0 4.1608,-0.108 4.16178,-0.24 z m 35.35577,14.88 c -0.0961,-0.396 -0.1348,-8.424 -0.0861,-17.84 l 0.0885,-17.120003 13.41891,-0.0836 c 10.52278,-0.0655 13.47421,0.004 13.6751,0.32 0.41639,0.65594 0.31796,6.14358 -0.11801,6.57956 -0.2809,0.28089 -2.85866,0.384 -9.6,0.384 h -9.216 v 3.680001 3.68 h 8.14874 c 9.47465,0 8.81126,-0.277066 8.81126,3.68 0,3.957066 0.66339,3.68 -8.81126,3.68 H 9.04215 v 6.261037 c 0,3.703942 -0.13529,6.51383 -0.33126,6.88 -0.29789,0.556605 -0.70026,0.618963 -3.9939,0.618963 -3.53322,0 -3.66882,-0.02544 -3.83729,-0.72 z m 33.28088,0.0035 c -0.0965,-0.397926 -0.13568,-8.427504 -0.087,-17.843504 l 0.0886,-17.119999 13.25888,-0.0836 c 10.39475,-0.0655 13.31424,0.004 13.5151,0.32 0.4504,0.70947 0.31664,6.20322 -0.16067,6.59934 -0.28416,0.23583 -3.4639,0.38252 -9.52,0.43918 l -9.09334,0.0851 v 3.200003 3.2 l 8,0.08276 c 7.06448,0.07308 8.04678,0.145719 8.4,0.621162 0.24294,0.326992 0.4,1.558419 0.4,3.13608 0,1.577661 -0.15706,2.809088 -0.4,3.13608 -0.35322,0.475443 -1.33552,0.54808 -8.4,0.621162 l -8,0.08276 v 3.36 3.36 l 9.44,0.16 9.44,0.16 v 3.52 3.52 l -13.35302,0.0835 -13.35303,0.08351 -0.17552,-0.723507 z m -212.63844,-44.901113 c -2.92124,-0.62741 -6.87808,-2.67688 -8.88608,-4.60261 -2.2474,-2.15532 -4.10206,-5.09436 -4.95148,-7.84649 -0.83772,-2.71425 -0.97148,-7.77009 -0.27127,-10.25329 1.59482,-5.6558 6.06666,-10.62124 11.34346,-12.59554 3.7893,-1.41776 10.21214,-1.44688 14.1463,-0.0641 2.34935,0.82573 5.91535,3.24381 7.48904,5.07826 1.76951,2.0627 3.41787,5.30385 4.0369,7.93767 0.68564,2.91727 0.46024,7.52353 -0.50279,10.27504 -3.12971,8.94204 -12.77547,14.13908 -22.40408,12.0711 z m 7.99362,-7.72081 c 4.53781,-1.46555 7.57581,-6.92038 6.73071,-12.08521 -0.60645,-3.70631 -2.59213,-6.51373 -5.82991,-8.24251 -1.16978,-0.62459 -1.85087,-0.73386 -4.57442,-0.73386 -2.72355,0 -3.40464,0.10927 -4.57442,0.73386 -3.62809,1.93719 -5.5276,4.98073 -5.7597,9.22867 -0.28556,5.22636 2.34588,9.48092 6.89816,11.15307 1.67042,0.61358 5.12371,0.58735 7.10958,-0.054 z m 129.92639,7.71919 c -10.28148,-2.21617 -16.45526,-12.77535 -13.55342,-23.18077 1.33849,-4.79957 4.8472,-9.15312 9.10048,-11.29171 2.91936,-1.46788 4.95892,-1.8886 9.09294,-1.87568 3.81999,0.0119 6.05736,0.41036 8.44638,1.50409 2.19658,1.00563 5.15362,3.20414 5.15362,3.83164 0,0.53658 -4.3586,5.59166 -4.82125,5.59166 -0.1683,0 -1.17214,-0.59123 -2.23078,-1.31385 -2.33085,-1.59102 -4.24408,-2.20615 -6.86183,-2.20615 -2.52131,0 -4.54084,0.69456 -6.23435,2.14414 -5.81263,4.9754 -4.81423,15.30981 1.80268,18.65926 1.7942,0.90821 5.55693,1.2367 7.66472,0.66913 1.06623,-0.2871 3.72807,-1.8494 5.77319,-3.38842 0.31084,-0.23391 1.04359,0.30377 2.82369,2.07199 1.32216,1.31334 2.40393,2.56032 2.40393,2.77108 0,0.21075 -0.7529,1.04181 -1.67311,1.84679 -4.50117,3.93751 -10.77211,5.48485 -16.88689,4.1668 z m -96.54852,-0.22077 c -0.62728,-0.81763 -14.19223,-35.14755 -14.00666,-35.44781 0.10852,-0.17558 1.91784,-0.31219 4.13488,-0.31219 3.1198,0 4.02531,0.10047 4.34172,0.48172 0.21988,0.26494 2.30772,5.62301 4.63963,11.90681 2.33192,6.28381 4.3726,11.46935 4.53484,11.52344 0.16225,0.0541 2.14588,-4.90799 4.40807,-11.02682 2.26218,-6.11883 4.31093,-11.52115 4.55276,-12.00515 l 0.43971,-0.88 h 3.9729 c 2.18509,0 4.0567,0.1356 4.15913,0.30134 0.23239,0.37602 -13.49327,34.75775 -14.12994,35.39442 -0.61319,0.61319 -6.58413,0.66762 -7.04704,0.0642 z m -124.74076,-0.30979 c -0.0863,-0.22561 -0.1196,-8.25821 -0.0739,-17.85021 l 0.0831,-17.44 7.97682,-0.0857 c 4.48491,-0.0482 8.75224,0.0576 9.74817,0.24173 4.17101,0.77106 7.51519,3.1899 9.22562,6.67289 0.81597,1.66158 0.88939,2.11487 0.88939,5.49109 0,3.28816 -0.088,3.86748 -0.82601,5.44075 -2.33482,4.97694 -7.35114,7.32084 -15.72606,7.34809 l -3.43208,0.0112 -0.0879,5.2 -0.0879,5.2 -3.76612,0.0902 c -2.83486,0.0679 -3.80495,-0.0112 -3.92314,-0.32 z m 16.22384,-17.90436 c 1.56539,-0.46901 3.30561,-2.35361 3.59432,-3.89252 0.30125,-1.60585 -0.32588,-3.68165 -1.42149,-4.7051 -1.31988,-1.23296 -3.16696,-1.63345 -7.0274,-1.52373 l -3.36,0.0955 -0.0889,4.78594 c -0.0489,2.63227 -0.0174,4.97227 0.07,5.2 0.20729,0.54019 6.46255,0.57051 8.23354,0.0399 z m 17.56205,17.6852 c -0.46107,-0.86152 -0.46616,-33.75106 -0.005,-34.61209 0.3153,-0.58915 0.75948,-0.61896 9.22123,-0.61896 5.06106,0 9.70777,0.15068 10.78874,0.34985 5.80669,1.06987 9.26541,4.84971 9.65631,10.55284 0.3755,5.47839 -1.56291,8.90685 -6.77182,11.97731 -0.47372,0.27924 -0.031,1.07271 3.4757,6.22918 2.21022,3.25004 4.01858,6.09404 4.01858,6.31999 0,0.31486 -1.0455,0.41083 -4.47532,0.41083 h -4.47532 l -3.56138,-5.36 c -1.95875,-2.948 -3.78838,-5.54 -4.06583,-5.76 -0.55559,-0.44053 -4.76994,-0.55043 -5.41411,-0.14118 -0.2781,0.17668 -0.41754,1.82524 -0.48,5.6751 l -0.088,5.42608 -3.74338,0.09 c -3.44444,0.0828 -3.77027,0.0398 -4.08,-0.53896 z m 19.11753,-18.69089 c 1.49453,-0.80987 2.30346,-2.2919 2.30346,-4.22016 0,-1.92679 -0.80749,-3.40771 -2.30346,-4.22446 -0.88641,-0.48396 -1.84341,-0.57554 -6.01415,-0.57554 h -4.96 l -0.0894,4.46459 c -0.0492,2.45553 -0.0128,4.66444 0.081,4.9087 0.27428,0.71476 9.56312,0.41609 10.98263,-0.35313 z m 99.09659,18.91005 c -0.0864,-0.22561 -0.1196,-8.25821 -0.0739,-17.85021 l 0.0831,-17.44 h 3.84 3.84 v 17.76 17.76 l -3.76613,0.0902 c -2.83486,0.0679 -3.80495,-0.0112 -3.92314,-0.32 z m 16.64,0 c -0.08636,-0.22561 -0.1196,-8.25821 -0.07387,-17.85021 l 0.0831,-17.44 3.53494,-0.0899 c 3.33064,-0.0847 3.57338,-0.0477 4.19988,0.64 0.36576,0.40143 3.94347,5.04987 7.95051,10.32987 4.00704,5.28 7.33709,9.66 7.40011,9.73333 0.46113,0.53655 0.61424,-1.58979 0.7546,-10.47954 l 0.16,-10.13379 3.47375,-0.0912 c 2.28696,-0.06 3.62621,0.0354 3.92,0.27918 0.61045,0.50663 0.67072,34.49952 0.0623,35.10799 -0.24609,0.24609 -1.50316,0.384 -3.50021,0.384 h -3.1162 l -8.0998,-10.61989 c -4.45489,-5.84094 -8.27784,-10.67629 -8.49545,-10.74522 -0.30766,-0.0975 -0.41441,2.24657 -0.48,10.53989 l -0.0843,10.66522 -3.76613,0.0902 c -2.83486,0.0679 -3.80495,-0.0112 -3.92314,-0.32 z m 77.99327,0.006 c -0.55393,-0.55393 -0.55393,-34.51807 0,-35.072 0.25292,-0.25293 1.60661,-0.384 3.96576,-0.384 2.9709,0 3.61489,0.0863 3.776,0.50617 0.25374,0.66122 0.25374,34.16643 0,34.82765 -0.16111,0.41985 -0.8051,0.50618 -3.776,0.50618 -2.35915,0 -3.71284,-0.13108 -3.96576,-0.384 z m 13.8273,-0.0554 c -0.0927,-0.24167 3.18051,-8.30987 7.27388,-17.92934 l 7.44249,-17.48993 3.84886,0.0893 3.84888,0.0893 7.45833,17.53266 c 4.10211,9.64296 7.3729,17.67096 7.26845,17.84 -0.29488,0.47707 -7.68496,0.39231 -8.07811,-0.0927 -0.17834,-0.22 -0.97008,-1.984 -1.75939,-3.92 l -1.43514,-3.52 H 17.01979 9.55782 l -1.33603,3.33636 c -1.96201,4.89954 -1.45634,4.50364 -5.75235,4.50364 -2.83101,0 -3.72649,-0.10205 -3.85594,-0.4394 z m 22.4542,-15.03169 c 0.17837,-0.46482 -3.6778,-10.12892 -4.04163,-10.12892 -0.3591,0 -4.18352,9.67512 -4.00663,10.13609 0.23677,0.61701 7.81133,0.61025 8.04826,-0.007 z"
       id="path72"
       inkscape:connector-curvature="0" />
    <path
       style="fill:#5294c9;stroke-width:0.31999999"
       d="m -52.3978,-29.03046 v -13.28 h 61.92 61.92 v 13.28 13.28 h -61.92 -61.92 z m -248.00001,-0.16 v -13.12 h 61.72577 c 56.84218,0 61.74165,0.0414 61.92657,0.5233 0.11044,0.28782 0.19157,6.19182 0.18027,13.12 l -0.0205,12.5967 h -61.90607 -61.90604 z m 110.46172,-43.214966 c -4.04445,-0.541559 -8.4132,-2.30897 -10.95725,-4.432836 l -1.08581,-0.906476 0.82609,-1.082861 c 0.45435,-0.595575 1.45816,-1.771709 2.23067,-2.613639 l 1.40458,-1.530774 1.92,1.293552 c 4.65065,3.133258 10.19789,3.767408 12.86763,1.471002 1.64353,-1.413703 1.04917,-3.98842 -1.18687,-5.141434 -0.44042,-0.227101 -3.0155,-1.082355 -5.72242,-1.900566 -6.99926,-2.115642 -8.67337,-3.118944 -10.11253,-6.06048 -1.01173,-2.067904 -1.15904,-5.691898 -0.33251,-8.180322 1.8183,-5.47442 8.97515,-8.18364 16.8067,-6.36219 1.86445,0.43364 6.41268,2.59202 7.1283,3.38276 0.53297,0.58892 0.48901,0.70932 -1.09025,2.98645 -0.90508,1.30503 -1.75484,2.494521 -1.88836,2.643318 -0.13352,0.148796 -1.58982,-0.39546 -3.23622,-1.209458 -3.36808,-1.66521 -6.26492,-2.17677 -8.37779,-1.47946 -3.02904,0.99968 -3.31672,4.500246 -0.48997,5.962018 0.53177,0.274989 2.90482,1.066672 5.27343,1.759296 6.60226,1.930612 9.00233,3.32376 10.51542,6.103815 2.32144,4.265254 0.9276,10.166294 -3.08848,13.075523 -2.53417,1.835747 -7.32347,2.769203 -11.40436,2.222762 z m -98.47493,-0.705034 c -0.0842,-0.22 -0.1157,-8.104 -0.07,-17.52 l 0.0832,-17.12 7.91373,-0.0856 c 9.06853,-0.0981 11.00025,0.16465 14.85962,2.02094 2.93675,1.41251 5.88283,4.22843 7.37667,7.050753 3.56769,6.740442 2.3877,15.384963 -2.80948,20.582151 -2.3023,2.302297 -6.04537,4.285747 -9.42054,4.991942 -2.98675,0.624927 -17.69947,0.690389 -17.93321,0.07979 z m 17.83546,-7.101754 c 4.49824,-1.635836 7.2576,-6.925638 6.32171,-12.118963 -0.73714,-4.090454 -3.26671,-7.084937 -6.94457,-8.220913 -2.42842,-0.75006 -8.94725,-0.92251 -9.61539,-0.25437 -0.5178,0.5178 -0.54881,19.830128 -0.0334,20.793206 0.33285,0.62193 0.56397,0.647335 4.56,0.501242 2.82885,-0.103421 4.70207,-0.333062 5.71163,-0.700202 z m 21.84592,7.105351 c -0.085,-0.221978 -0.11708,-8.107597 -0.0713,-17.523597 l 0.0832,-17.12 12.93884,-0.0837 c 10.13867,-0.0656 12.9943,0.004 13.1951,0.32 0.4464,0.70319 0.31538,5.56438 -0.16061,5.95942 -0.28416,0.23584 -3.4639,0.38253 -9.52,0.43918 l -9.09333,0.0851 v 3.52 3.52 l 8.16,0.16 8.16,0.16 0.0911,3.274576 0.0911,3.274573 -8.25113,0.08543 -8.25114,0.08542 v 3.68 3.68 l 9.44,0.16 9.44,0.16 v 3.2 3.2 l -13.04866,0.0836 c -10.26763,0.06578 -13.08159,-0.0026 -13.20317,-0.32 z m 78.89183,-0.04612 c 0,-0.542506 13.92692,-33.351237 14.58435,-34.357477 0.43522,-0.66613 0.70633,-0.72 3.62385,-0.72 2.24934,0 3.25573,0.12325 3.51022,0.4299 0.48148,0.58014 14.76158,34.124515 14.76158,34.675375 0,0.347127 -0.75878,0.416823 -3.75478,0.344887 l -3.75479,-0.09016 -0.96521,-2.260963 c -0.53087,-1.24353 -1.27683,-3.00753 -1.65769,-3.92 l -0.69247,-1.659037 h -7.33793 c -6.59207,0 -7.38679,0.05692 -7.8186,0.56 -0.26436,0.308 -1.01997,1.928 -1.67913,3.6 -0.65916,1.672 -1.34681,3.22 -1.52812,3.44 -0.4961,0.601987 -7.29128,0.562352 -7.29128,-0.04253 z m 22.7081,-14.677472 c -0.0277,-0.931872 -4.13284,-10.327981 -4.54963,-10.413562 -0.3165,-0.06499 -1.10283,1.489367 -2.57499,5.090077 -1.16564,2.851002 -2.04428,5.305107 -1.95253,5.453562 0.0917,0.148457 2.17433,0.269923 4.62794,0.269923 3.36191,0 4.45818,-0.09856 4.44921,-0.4 z m 19.9987,14.72 c -0.0842,-0.22 -0.1157,-8.104 -0.07,-17.52 l 0.0832,-17.120005 3.37468,-0.0902 c 3.16368,-0.0845 3.41653,-0.0445 4.04427,0.64 0.36828,0.40158 4.00808,5.12215 8.08844,10.490158 4.08036,5.368 7.58844,9.76 7.79573,9.76 0.27817,0 0.41879,-2.724064 0.53689,-10.4 l 0.16,-10.400008 h 3.52 3.52 v 17.440008 17.44 h -3.18682 -3.18681 l -8.17319,-10.780544 c -4.49525,-5.929296 -8.35319,-10.789296 -8.57319,-10.8 -0.31217,-0.01517 -0.4,2.258266 -0.4,10.354371 0,5.705607 -0.0874,10.601607 -0.19423,10.88 -0.16072,0.418819 -0.79752,0.506173 -3.69004,0.506173 -2.50165,0 -3.53936,-0.113754 -3.64893,-0.4 z m 48.37133,-0.09605 c -0.10897,-0.283962 -0.19812,-6.624518 -0.19812,-14.090125 v -13.57383 h -4.77383 c -2.62561,0 -5.00161,-0.0874 -5.28,-0.19424 -0.41668,-0.15989 -0.50617,-0.78282 -0.50617,-3.52325 v -3.32902 l 14.48,0.0833 14.48,0.0833 0.091,3.07168 c 0.0676,2.28251 -0.0204,3.16409 -0.34237,3.43136 -0.26819,0.22257 -2.31546,0.39346 -5.371,0.44831 l -4.93763,0.0887 -0.16,13.919997 -0.16,13.92 -3.56188,0.09013 c -3.03608,0.07682 -3.59113,0.01392 -3.76,-0.426173 z m 21.88188,0.11216 c 0,-0.474208 13.98225,-33.414275 14.61333,-34.426795 0.4342,-0.69665 0.61343,-0.72646 3.84773,-0.64 l 3.3923,0.0907 7.29906,17.120001 c 4.01448,9.416 7.30547,17.37657 7.31332,17.690157 0.013,0.520182 -0.3138,0.562253 -3.72883,0.48 l -3.74308,-0.09015 -1.48927,-3.616355 c -0.8191,-1.988995 -1.62868,-3.755767 -1.79907,-3.926157 -0.18688,-0.18688 -3.22125,-0.275616 -7.64765,-0.223645 l -7.33784,0.08616 -0.64,1.287814 c -0.352,0.708298 -1.11869,2.472298 -1.70375,3.92 l -1.06374,2.632183 h -3.65626 c -2.62982,0 -3.65625,-0.10777 -3.65625,-0.383888 z m 22.72,-14.763549 c 0,-0.902992 -4.0815,-10.296899 -4.50942,-10.378813 -0.30833,-0.05902 -1.12095,1.557364 -2.57402,5.12 -1.16789,2.863437 -2.05939,5.31425 -1.98111,5.44625 0.0783,0.132 2.14982,0.24 4.60343,0.24 3.50829,0 4.46112,-0.0913 4.46112,-0.427437 z M 1.18899,-73.11046 c -0.0842,-0.22 -0.1157,-8.104 -0.07,-17.52 l 0.0832,-17.12 h 13.28 13.28 v 3.2 3.2 l -9.44,0.16 -9.44,0.16 v 3.84 3.84 l 8.14459,0.08563 c 6.02622,0.06336 8.20974,0.188202 8.39509,0.48 0.13779,0.216902 0.25053,1.546368 0.25053,2.954368 0,1.408 -0.11274,2.737466 -0.25053,2.954368 -0.18535,0.291798 -2.36887,0.416643 -8.39509,0.48 l -8.14459,0.08563 -0.17643,6.72 c -0.097,3.696 -0.20503,6.756 -0.24,6.8 -0.035,0.044 -1.65209,0.08 -3.59361,0.08 -2.52904,0 -3.57347,-0.113427 -3.68317,-0.4 z m 33.27999,0 c -0.0842,-0.22 -0.11568,-8.104 -0.0699,-17.52 l 0.0832,-17.12 h 13.12 13.12 v 3.2 3.2 l -9.26422,0.085 c -6.92224,0.0635 -9.32762,0.18486 -9.51511,0.48 -0.2951,0.46462 -0.34918,5.712007 -0.0664,6.448813 0.17002,0.443098 1.20253,0.506173 8.28576,0.506173 7.08323,0 8.11574,0.06308 8.28576,0.506173 0.10685,0.278393 0.19424,1.562617 0.19424,2.853827 0,1.29121 -0.0874,2.575434 -0.19424,2.853827 -0.17002,0.443098 -1.20253,0.506173 -8.28576,0.506173 -7.08323,0 -8.11574,0.06307 -8.28576,0.506173 -0.10685,0.278393 -0.19424,1.778617 -0.19424,3.333827 0,1.55521 0.0874,3.055434 0.19424,3.333827 0.17101,0.445619 1.31536,0.506173 9.56576,0.506173 8.2504,0 9.39475,0.06055 9.56576,0.506173 0.10685,0.278393 0.19424,1.562617 0.19424,2.853827 0,1.29121 -0.0874,2.575434 -0.19424,2.853827 -0.17274,0.450154 -1.64358,0.506173 -13.29005,0.506173 -10.18163,0 -13.12989,-0.08901 -13.24893,-0.4 z m -212.94679,-45.21923 c -5.17418,-1.11529 -10.33153,-5.05309 -12.44741,-9.50401 -3.48743,-7.33605 -2.07605,-15.58699 3.62587,-21.19676 10.12372,-9.96013 28.16944,-5.06292 31.36956,8.513 1.49,6.32103 -0.2597,12.61026 -4.76149,17.11502 -4.61987,4.62293 -11.1858,6.49555 -17.78653,5.07275 z m 9.09992,-7.49105 c 6.7354,-3.26055 8.16113,-13.39112 2.60535,-18.51227 -2.51198,-2.31546 -3.74062,-2.77748 -7.38527,-2.7772 -2.84671,2.2e-4 -3.37806,0.0942 -4.81284,0.85136 -1.97283,1.04108 -4.10432,3.2956 -5.02789,5.31809 -0.55513,1.21565 -0.69256,2.13556 -0.70447,4.71522 -0.0138,2.99115 0.0554,3.34754 1.03696,5.34316 1.23639,2.51359 3.23239,4.41801 5.62234,5.36437 2.3167,0.91735 6.44325,0.7732 8.66582,-0.30273 z m 128.82009,7.49105 c -7.03823,-1.51709 -12.3491,-7.08091 -13.64524,-14.29515 -1.7488,-9.73374 3.99635,-18.72617 13.53143,-21.17969 4.15476,-1.06908 9.96934,-0.4151 13.82217,1.55462 1.52234,0.77828 4.21164,2.91645 4.21164,3.34852 0,0.36733 -4.16947,5.15093 -4.48964,5.15093 -0.15507,0 -1.10795,-0.57862 -2.11752,-1.28583 -2.21056,-1.5485 -4.35701,-2.23417 -6.99392,-2.23417 -3.03569,0 -4.80785,0.75932 -7.09277,3.03906 -1.71368,1.7098 -2.06694,2.27588 -2.68018,4.29482 -1.42714,4.69855 -0.25368,9.42738 3.09999,12.49245 2.26985,2.07452 4.15256,2.69612 7.59151,2.50646 2.81929,-0.15549 4.67003,-0.8848 7.03729,-2.77314 0.89865,-0.71686 1.37839,-0.90809 1.76243,-0.70256 0.74641,0.39947 4.20281,4.06867 4.20281,4.46157 0,0.60776 -3.66779,3.33249 -5.92,4.39787 -3.57626,1.69168 -8.07667,2.1389 -12.32,1.22424 z m -96.30388,-0.28134 c -0.55596,-0.66988 -14.06132,-34.5347 -13.88607,-34.81943 0.0812,-0.132 1.86215,-0.24 3.95757,-0.24 3.30169,0 3.84956,0.0747 4.10756,0.56 0.16374,0.308 2.19366,5.672 4.51093,11.92 2.31727,6.248 4.34596,11.4944 4.50822,11.65867 0.16225,0.16426 0.38277,0.21089 0.49005,0.10362 0.10727,-0.10728 1.84152,-4.63368 3.85388,-10.05867 2.01236,-5.42499 4.02758,-10.83562 4.47826,-12.02362 l 0.81943,-2.16 h 3.79314 c 2.08622,0 3.8609,0.10966 3.94374,0.24368 0.17285,0.27968 -13.36165,34.18037 -13.90989,34.84097 -0.52506,0.63266 -6.13846,0.61142 -6.66682,-0.0252 z m -124.81613,-17.44895 v -17.61048 h 8.25277 c 8.86057,0 10.433,0.20217 13.44546,1.7287 1.86638,0.94576 4.04161,3.24563 4.97029,5.25509 0.58182,1.25893 0.69148,2.07982 0.69148,5.17621 0,3.09639 -0.10966,3.91728 -0.69148,5.17621 -1.42488,3.08311 -4.6314,5.62126 -8.43659,6.67807 -0.78756,0.21873 -3.51993,0.485 -6.07193,0.59171 l -4.64,0.19401 -0.16,5.12 -0.16,5.12 -3.6,0.0905 -3.6,0.0905 z m 17.06856,-0.46049 c 3.58323,-1.77917 3.91279,-7.12057 0.57799,-9.36789 -1.2491,-0.84177 -3.38185,-1.13676 -7.24655,-1.0023 l -2.88,0.1002 -0.0885,5.10716 c -0.0487,2.80893 -0.0128,5.30438 0.0797,5.54543 0.27642,0.72034 7.95508,0.41295 9.55731,-0.3826 z m 16.72956,17.55396 c -0.25634,-0.66801 -0.26007,-33.53016 -0.004,-34.19778 0.17065,-0.44471 1.27089,-0.50617 9.06123,-0.50617 5.04444,0 9.68555,0.15082 10.76576,0.34985 2.69067,0.49575 4.97539,1.67114 6.533,3.36096 1.86648,2.02488 2.61125,3.88292 2.80569,6.99954 0.29876,4.7888 -1.26693,8.06137 -5.06471,10.58614 -1.21837,0.80996 -2.21521,1.5386 -2.21521,1.61918 0,0.0806 1.73388,2.66508 3.85307,5.74331 2.11919,3.07824 3.93624,5.81354 4.0379,6.07846 0.15992,0.41674 -0.3918,0.46959 -4.09307,0.39211 l -4.2779,-0.0896 -3.79335,-5.53119 -3.79335,-5.53118 -3.08665,0.0912 -3.08665,0.0912 -0.16,5.44 -0.16,5.44 -3.56188,0.0901 c -3.03608,0.0768 -3.59112,0.0139 -3.76,-0.42617 z m 19.00079,-18.24125 c 0.61541,-0.36152 1.45602,-1.15352 1.86804,-1.76 0.63783,-0.93888 0.73043,-1.4059 0.62332,-3.14357 -0.11492,-1.86425 -0.22589,-2.1326 -1.28232,-3.10074 -1.60995,-1.47541 -3.05352,-1.77055 -8.15597,-1.6675 l -4.41198,0.0891 -0.0889,4.78594 c -0.0489,2.63227 -0.0126,4.98491 0.0807,5.2281 0.13692,0.35681 1.14247,0.42129 5.20893,0.33406 4.38674,-0.0941 5.18415,-0.19321 6.15818,-0.7654 z m 99.34789,18.3373 c -0.0842,-0.22 -0.1157,-8.104 -0.07,-17.52 l 0.0832,-17.12 3.6,-0.0905 3.6,-0.0905 v 17.61048 17.61048 h -3.53005 c -2.52903,0 -3.57346,-0.11343 -3.68316,-0.4 z m 16.64417,0.0109 c -0.08651,-0.22598 -0.11987,-8.11488 -0.07413,-17.53088 l 0.0832,-17.12 3.41059,-0.0905 3.41059,-0.0905 8.04118,10.57053 c 4.42264,5.81379 8.17987,10.57053 8.3494,10.57053 0.19107,0 0.3101,-3.86195 0.31314,-10.16 0.003,-5.588 0.12235,-10.34512 0.26591,-10.57137 0.19273,-0.30376 1.17512,-0.38747 3.7551,-0.32 l 3.49406,0.0914 v 17.44 17.44 l -3.08597,0.0912 c -2.2749,0.0672 -3.20004,-0.0232 -3.52,-0.34408 -0.23872,-0.23939 -4.01874,-5.14042 -8.40004,-10.89118 -4.3813,-5.75075 -8.15939,-10.45592 -8.39574,-10.45592 -0.3495,0 -0.44547,2.01658 -0.514,10.8 l -0.0842,10.8 -3.44587,0.0909 c -2.57793,0.068 -3.48549,-0.0126 -3.60317,-0.32 z m 77.75987,-3.2e-4 c -0.08644,-0.22582 -0.11974,-8.11456 -0.074,-17.53056 l 0.0832,-17.12 h 3.68 3.68 v 17.44 17.44 l -3.606,0.0905 c -2.70641,0.0679 -3.64521,-0.0119 -3.76317,-0.32 z m 13.92917,0.0865 c 0,-0.44108 14.40503,-34.31291 14.8114,-34.82738 0.23567,-0.29834 1.24564,-0.38568 3.70057,-0.32 l 3.37644,0.0904 7.43015,17.44 c 4.08656,9.592 7.32154,17.55294 7.1888,17.69098 -0.13274,0.13803 -1.87744,0.21003 -3.87715,0.16 l -3.63581,-0.091 -1.33543,-3.33636 c -2.01632,-5.03746 -0.89987,-4.50364 -9.41897,-4.50364 -8.51911,0 -7.40265,-0.53383 -9.41901,4.50364 l -1.33546,3.33636 -3.74276,0.0902 c -2.36665,0.057 -3.74277,-0.0287 -3.74277,-0.23312 z m 22.70224,-14.97703 c -0.0367,-1.15735 -3.98892,-10.16 -4.4603,-10.16 -0.47526,0 -4.44572,9.02463 -4.46998,10.16 -0.0108,0.50724 0.41015,0.56 4.46804,0.56 4.06009,0 4.47833,-0.0525 4.46224,-0.56 z"
       id="path70"
       inkscape:connector-curvature="0" />
    <path
       style="fill:#2579bc;stroke-width:0.31999999"
       d="m -300.39781,-29.19046 v -13.12 h 61.72577 c 56.84218,0 61.74165,0.0414 61.92657,0.5233 0.11044,0.28782 0.19157,6.19182 0.18027,13.12 l -0.0205,12.5967 h -61.90607 -61.90604 z m 248.16001,12.8751 c 0.20396,-0.14985 0.32,-4.8185 0.32,-12.8751 v -12.64 h 61.44 c 40.58992,0 61.51978,-0.1086 61.6751,-0.32 0.12932,-0.176 0.23732,5.62 0.24,12.88 l 0.005,13.2 -62,-0.005 c -34.1,-0.003 -61.856,-0.11069 -61.68,-0.24 z m -137.69829,-56.090066 c -4.04445,-0.541559 -8.4132,-2.30897 -10.95725,-4.432836 l -1.08581,-0.906476 0.82609,-1.082861 c 0.45435,-0.595575 1.45816,-1.771709 2.23067,-2.613639 l 1.40458,-1.530774 1.92,1.293552 c 4.65065,3.133258 10.19789,3.767408 12.86763,1.471002 1.64353,-1.413703 1.04917,-3.98842 -1.18687,-5.141434 -0.44042,-0.227101 -3.0155,-1.082355 -5.72242,-1.900566 -6.99926,-2.115642 -8.67337,-3.118944 -10.11253,-6.06048 -1.01173,-2.067904 -1.15904,-5.691898 -0.33251,-8.180322 1.8183,-5.47442 8.97515,-8.18364 16.8067,-6.36219 1.86445,0.43364 6.41268,2.59202 7.1283,3.38276 0.53297,0.58892 0.48901,0.70932 -1.09025,2.98645 -0.90508,1.30503 -1.75484,2.494521 -1.88836,2.643318 -0.13352,0.148796 -1.58982,-0.39546 -3.23622,-1.209458 -3.36808,-1.66521 -6.26492,-2.17677 -8.37779,-1.47946 -3.02904,0.99968 -3.31672,4.500246 -0.48997,5.962018 0.53177,0.274989 2.90482,1.066672 5.27343,1.759296 6.60226,1.930612 9.00233,3.32376 10.51542,6.103815 2.32144,4.265254 0.9276,10.166294 -3.08848,13.075523 -2.53417,1.835747 -7.32347,2.769203 -11.40436,2.222762 z m -98.47493,-0.705034 c -0.0842,-0.22 -0.1157,-8.104 -0.07,-17.52 l 0.0832,-17.12 7.91373,-0.0856 c 9.06853,-0.0981 11.00025,0.16465 14.85962,2.02094 2.93675,1.41251 5.88283,4.22843 7.37667,7.050753 3.56769,6.740442 2.3877,15.384963 -2.80948,20.582151 -2.3023,2.302297 -6.04537,4.285747 -9.42054,4.991942 -2.98675,0.624927 -17.69947,0.690389 -17.93321,0.07979 z m 17.83546,-7.101754 c 4.49824,-1.635836 7.2576,-6.925638 6.32171,-12.118963 -0.73714,-4.090454 -3.26671,-7.084937 -6.94457,-8.220913 -2.42842,-0.75006 -8.94725,-0.92251 -9.61539,-0.25437 -0.5178,0.5178 -0.54881,19.830128 -0.0334,20.793206 0.33285,0.62193 0.56397,0.647335 4.56,0.501242 2.82885,-0.103421 4.70207,-0.333062 5.71163,-0.700202 z m 21.84592,7.105351 c -0.085,-0.221978 -0.11708,-8.107597 -0.0713,-17.523597 l 0.0832,-17.12 12.93884,-0.0837 c 10.13867,-0.0656 12.9943,0.004 13.1951,0.32 0.4464,0.70319 0.31538,5.56438 -0.16061,5.95942 -0.28416,0.23584 -3.4639,0.38253 -9.52,0.43918 l -9.09333,0.0851 v 3.52 3.52 l 8.16,0.16 8.16,0.16 0.0911,3.274576 0.0911,3.274573 -8.25113,0.08543 -8.25114,0.08542 v 3.68 3.68 l 9.44,0.16 9.44,0.16 v 3.2 3.2 l -13.04866,0.0836 c -10.26763,0.06578 -13.08159,-0.0026 -13.20317,-0.32 z m 78.89183,-0.04612 c 0,-0.542506 13.92692,-33.351237 14.58435,-34.357477 0.43522,-0.66613 0.70633,-0.72 3.62385,-0.72 2.24934,0 3.25573,0.12325 3.51022,0.4299 0.48148,0.58014 14.76158,34.124515 14.76158,34.675375 0,0.347127 -0.75878,0.416823 -3.75478,0.344887 l -3.75479,-0.09016 -0.96521,-2.260963 c -0.53087,-1.24353 -1.27683,-3.00753 -1.65769,-3.92 l -0.69247,-1.659037 h -7.33793 c -6.59207,0 -7.38679,0.05692 -7.8186,0.56 -0.26436,0.308 -1.01997,1.928 -1.67913,3.6 -0.65916,1.672 -1.34681,3.22 -1.52812,3.44 -0.4961,0.601987 -7.29128,0.562352 -7.29128,-0.04253 z m 22.7081,-14.677472 c -0.0277,-0.931872 -4.13284,-10.327981 -4.54963,-10.413562 -0.3165,-0.06499 -1.10283,1.489367 -2.57499,5.090077 -1.16564,2.851002 -2.04428,5.305107 -1.95253,5.453562 0.0917,0.148457 2.17433,0.269923 4.62794,0.269923 3.36191,0 4.45818,-0.09856 4.44921,-0.4 z m 19.9987,14.72 c -0.0842,-0.22 -0.1157,-8.104 -0.07,-17.52 l 0.0832,-17.120005 3.37468,-0.0902 c 3.16368,-0.0845 3.41653,-0.0445 4.04427,0.64 0.36828,0.40158 4.00808,5.12215 8.08844,10.490158 4.08036,5.368 7.58844,9.76 7.79573,9.76 0.27817,0 0.41879,-2.724064 0.53689,-10.4 l 0.16,-10.400008 h 3.52 3.52 v 17.440008 17.44 h -3.18682 -3.18681 l -8.17319,-10.780544 c -4.49525,-5.929296 -8.35319,-10.789296 -8.57319,-10.8 -0.31217,-0.01517 -0.4,2.258266 -0.4,10.354371 0,5.705607 -0.0874,10.601607 -0.19423,10.88 -0.16072,0.418819 -0.79752,0.506173 -3.69004,0.506173 -2.50165,0 -3.53936,-0.113754 -3.64893,-0.4 z m 48.37133,-0.09605 c -0.10897,-0.283962 -0.19812,-6.624518 -0.19812,-14.090125 v -13.57383 h -4.77383 c -2.62561,0 -5.00161,-0.0874 -5.28,-0.19424 -0.41668,-0.15989 -0.50617,-0.78282 -0.50617,-3.52325 v -3.32902 l 14.48,0.0833 14.48,0.0833 0.091,3.07168 c 0.0676,2.28251 -0.0204,3.16409 -0.34237,3.43136 -0.26819,0.22257 -2.31546,0.39346 -5.371,0.44831 l -4.93763,0.0887 -0.16,13.919997 -0.16,13.92 -3.56188,0.09013 c -3.03608,0.07682 -3.59113,0.01392 -3.76,-0.426173 z m 21.88188,0.11216 c 0,-0.474208 13.98225,-33.414275 14.61333,-34.426795 0.4342,-0.69665 0.61343,-0.72646 3.84773,-0.64 l 3.3923,0.0907 7.29906,17.120001 c 4.01448,9.416 7.30547,17.37657 7.31332,17.690157 0.013,0.520182 -0.3138,0.562253 -3.72883,0.48 l -3.74308,-0.09015 -1.48927,-3.616355 c -0.8191,-1.988995 -1.62868,-3.755767 -1.79907,-3.926157 -0.18688,-0.18688 -3.22125,-0.275616 -7.64765,-0.223645 l -7.33784,0.08616 -0.64,1.287814 c -0.352,0.708298 -1.11869,2.472298 -1.70375,3.92 l -1.06374,2.632183 h -3.65626 c -2.62982,0 -3.65625,-0.10777 -3.65625,-0.383888 z m 22.72,-14.763549 c 0,-0.902992 -4.0815,-10.296899 -4.50942,-10.378813 -0.30833,-0.05902 -1.12095,1.557364 -2.57402,5.12 -1.16789,2.863437 -2.05939,5.31425 -1.98111,5.44625 0.0783,0.132 2.14982,0.24 4.60343,0.24 3.50829,0 4.46112,-0.0913 4.46112,-0.427437 z M 1.18899,-73.11046 c -0.0842,-0.22 -0.1157,-8.104 -0.07,-17.52 l 0.0832,-17.12 h 13.28 13.28 v 3.2 3.2 l -9.44,0.16 -9.44,0.16 v 3.84 3.84 l 8.14459,0.08563 c 6.02622,0.06336 8.20974,0.188202 8.39509,0.48 0.13779,0.216902 0.25053,1.546368 0.25053,2.954368 0,1.408 -0.11274,2.737466 -0.25053,2.954368 -0.18535,0.291798 -2.36887,0.416643 -8.39509,0.48 l -8.14459,0.08563 -0.17643,6.72 c -0.097,3.696 -0.20503,6.756 -0.24,6.8 -0.035,0.044 -1.65209,0.08 -3.59361,0.08 -2.52904,0 -3.57347,-0.113427 -3.68317,-0.4 z m 33.27999,0 c -0.0842,-0.22 -0.11568,-8.104 -0.0699,-17.52 l 0.0832,-17.12 h 13.12 13.12 v 3.2 3.2 l -9.26422,0.085 c -6.92224,0.0635 -9.32762,0.18486 -9.51511,0.48 -0.2951,0.46462 -0.34918,5.712007 -0.0664,6.448813 0.17002,0.443098 1.20253,0.506173 8.28576,0.506173 7.08323,0 8.11574,0.06308 8.28576,0.506173 0.10685,0.278393 0.19424,1.562617 0.19424,2.853827 0,1.29121 -0.0874,2.575434 -0.19424,2.853827 -0.17002,0.443098 -1.20253,0.506173 -8.28576,0.506173 -7.08323,0 -8.11574,0.06307 -8.28576,0.506173 -0.10685,0.278393 -0.19424,1.778617 -0.19424,3.333827 0,1.55521 0.0874,3.055434 0.19424,3.333827 0.17101,0.445619 1.31536,0.506173 9.56576,0.506173 8.2504,0 9.39475,0.06055 9.56576,0.506173 0.10685,0.278393 0.19424,1.562617 0.19424,2.853827 0,1.29121 -0.0874,2.575434 -0.19424,2.853827 -0.17274,0.450154 -1.64358,0.506173 -13.29005,0.506173 -10.18163,0 -13.12989,-0.08901 -13.24893,-0.4 z m -212.94679,-45.21923 c -5.17418,-1.11529 -10.33153,-5.05309 -12.44741,-9.50401 -3.48743,-7.33605 -2.07605,-15.58699 3.62587,-21.19676 10.12372,-9.96013 28.16944,-5.06292 31.36956,8.513 1.49,6.32103 -0.2597,12.61026 -4.76149,17.11502 -4.61987,4.62293 -11.1858,6.49555 -17.78653,5.07275 z m 9.09992,-7.49105 c 6.7354,-3.26055 8.16113,-13.39112 2.60535,-18.51227 -2.51198,-2.31546 -3.74062,-2.77748 -7.38527,-2.7772 -2.84671,2.2e-4 -3.37806,0.0942 -4.81284,0.85136 -1.97283,1.04108 -4.10432,3.2956 -5.02789,5.31809 -0.55513,1.21565 -0.69256,2.13556 -0.70447,4.71522 -0.0138,2.99115 0.0554,3.34754 1.03696,5.34316 1.23639,2.51359 3.23239,4.41801 5.62234,5.36437 2.3167,0.91735 6.44325,0.7732 8.66582,-0.30273 z m 128.82009,7.49105 c -7.03823,-1.51709 -12.3491,-7.08091 -13.64524,-14.29515 -1.7488,-9.73374 3.99635,-18.72617 13.53143,-21.17969 4.15476,-1.06908 9.96934,-0.4151 13.82217,1.55462 1.52234,0.77828 4.21164,2.91645 4.21164,3.34852 0,0.36733 -4.16947,5.15093 -4.48964,5.15093 -0.15507,0 -1.10795,-0.57862 -2.11752,-1.28583 -2.21056,-1.5485 -4.35701,-2.23417 -6.99392,-2.23417 -3.03569,0 -4.80785,0.75932 -7.09277,3.03906 -1.71368,1.7098 -2.06694,2.27588 -2.68018,4.29482 -1.42714,4.69855 -0.25368,9.42738 3.09999,12.49245 2.26985,2.07452 4.15256,2.69612 7.59151,2.50646 2.81929,-0.15549 4.67003,-0.8848 7.03729,-2.77314 0.89865,-0.71686 1.37839,-0.90809 1.76243,-0.70256 0.74641,0.39947 4.20281,4.06867 4.20281,4.46157 0,0.60776 -3.66779,3.33249 -5.92,4.39787 -3.57626,1.69168 -8.07667,2.1389 -12.32,1.22424 z m -96.30388,-0.28134 c -0.55596,-0.66988 -14.06132,-34.5347 -13.88607,-34.81943 0.0812,-0.132 1.86215,-0.24 3.95757,-0.24 3.30169,0 3.84956,0.0747 4.10756,0.56 0.16374,0.308 2.19366,5.672 4.51093,11.92 2.31727,6.248 4.34596,11.4944 4.50822,11.65867 0.16225,0.16426 0.38277,0.21089 0.49005,0.10362 0.10727,-0.10728 1.84152,-4.63368 3.85388,-10.05867 2.01236,-5.42499 4.02758,-10.83562 4.47826,-12.02362 l 0.81943,-2.16 h 3.79314 c 2.08622,0 3.8609,0.10966 3.94374,0.24368 0.17285,0.27968 -13.36165,34.18037 -13.90989,34.84097 -0.52506,0.63266 -6.13846,0.61142 -6.66682,-0.0252 z m -124.81613,-17.44895 v -17.61048 h 8.25277 c 8.86057,0 10.433,0.20217 13.44546,1.7287 1.86638,0.94576 4.04161,3.24563 4.97029,5.25509 0.58182,1.25893 0.69148,2.07982 0.69148,5.17621 0,3.09639 -0.10966,3.91728 -0.69148,5.17621 -1.42488,3.08311 -4.6314,5.62126 -8.43659,6.67807 -0.78756,0.21873 -3.51993,0.485 -6.07193,0.59171 l -4.64,0.19401 -0.16,5.12 -0.16,5.12 -3.6,0.0905 -3.6,0.0905 z m 17.06856,-0.46049 c 3.58323,-1.77917 3.91279,-7.12057 0.57799,-9.36789 -1.2491,-0.84177 -3.38185,-1.13676 -7.24655,-1.0023 l -2.88,0.1002 -0.0885,5.10716 c -0.0487,2.80893 -0.0128,5.30438 0.0797,5.54543 0.27642,0.72034 7.95508,0.41295 9.55731,-0.3826 z m 16.72956,17.55396 c -0.25634,-0.66801 -0.26007,-33.53016 -0.004,-34.19778 0.17065,-0.44471 1.27089,-0.50617 9.06123,-0.50617 5.04444,0 9.68555,0.15082 10.76576,0.34985 2.69067,0.49575 4.97539,1.67114 6.533,3.36096 1.86648,2.02488 2.61125,3.88292 2.80569,6.99954 0.29876,4.7888 -1.26693,8.06137 -5.06471,10.58614 -1.21837,0.80996 -2.21521,1.5386 -2.21521,1.61918 0,0.0806 1.73388,2.66508 3.85307,5.74331 2.11919,3.07824 3.93624,5.81354 4.0379,6.07846 0.15992,0.41674 -0.3918,0.46959 -4.09307,0.39211 l -4.2779,-0.0896 -3.79335,-5.53119 -3.79335,-5.53118 -3.08665,0.0912 -3.08665,0.0912 -0.16,5.44 -0.16,5.44 -3.56188,0.0901 c -3.03608,0.0768 -3.59112,0.0139 -3.76,-0.42617 z m 19.00079,-18.24125 c 0.61541,-0.36152 1.45602,-1.15352 1.86804,-1.76 0.63783,-0.93888 0.73043,-1.4059 0.62332,-3.14357 -0.11492,-1.86425 -0.22589,-2.1326 -1.28232,-3.10074 -1.60995,-1.47541 -3.05352,-1.77055 -8.15597,-1.6675 l -4.41198,0.0891 -0.0889,4.78594 c -0.0489,2.63227 -0.0126,4.98491 0.0807,5.2281 0.13692,0.35681 1.14247,0.42129 5.20893,0.33406 4.38674,-0.0941 5.18415,-0.19321 6.15818,-0.7654 z m 99.34789,18.3373 c -0.0842,-0.22 -0.1157,-8.104 -0.07,-17.52 l 0.0832,-17.12 3.6,-0.0905 3.6,-0.0905 v 17.61048 17.61048 h -3.53005 c -2.52903,0 -3.57346,-0.11343 -3.68316,-0.4 z m 16.64417,0.0109 c -0.08651,-0.22598 -0.11987,-8.11488 -0.07413,-17.53088 l 0.0832,-17.12 3.41059,-0.0905 3.41059,-0.0905 8.04118,10.57053 c 4.42264,5.81379 8.17987,10.57053 8.3494,10.57053 0.19107,0 0.3101,-3.86195 0.31314,-10.16 0.003,-5.588 0.12235,-10.34512 0.26591,-10.57137 0.19273,-0.30376 1.17512,-0.38747 3.7551,-0.32 l 3.49406,0.0914 v 17.44 17.44 l -3.08597,0.0912 c -2.2749,0.0672 -3.20004,-0.0232 -3.52,-0.34408 -0.23872,-0.23939 -4.01874,-5.14042 -8.40004,-10.89118 -4.3813,-5.75075 -8.15939,-10.45592 -8.39574,-10.45592 -0.3495,0 -0.44547,2.01658 -0.514,10.8 l -0.0842,10.8 -3.44587,0.0909 c -2.57793,0.068 -3.48549,-0.0126 -3.60317,-0.32 z m 77.75987,-3.2e-4 c -0.08644,-0.22582 -0.11974,-8.11456 -0.074,-17.53056 l 0.0832,-17.12 h 3.68 3.68 v 17.44 17.44 l -3.606,0.0905 c -2.70641,0.0679 -3.64521,-0.0119 -3.76317,-0.32 z m 13.92917,0.0865 c 0,-0.44108 14.40503,-34.31291 14.8114,-34.82738 0.23567,-0.29834 1.24564,-0.38568 3.70057,-0.32 l 3.37644,0.0904 7.43015,17.44 c 4.08656,9.592 7.32154,17.55294 7.1888,17.69098 -0.13274,0.13803 -1.87744,0.21003 -3.87715,0.16 l -3.63581,-0.091 -1.33543,-3.33636 c -2.01632,-5.03746 -0.89987,-4.50364 -9.41897,-4.50364 -8.51911,0 -7.40265,-0.53383 -9.41901,4.50364 l -1.33546,3.33636 -3.74276,0.0902 c -2.36665,0.057 -3.74277,-0.0287 -3.74277,-0.23312 z m 22.70224,-14.97703 c -0.0367,-1.15735 -3.98892,-10.16 -4.4603,-10.16 -0.47526,0 -4.44572,9.02463 -4.46998,10.16 -0.0108,0.50724 0.41015,0.56 4.46804,0.56 4.06009,0 4.47833,-0.0525 4.46224,-0.56 z"
       id="path68"
       inkscape:connector-curvature="0" />
    <path
       style="fill:#e8343a;stroke-width:0.32000062"
       d="m -300.39781,-29.190486 v -13.120026 h 61.72589 c 56.84229,0 61.74177,0.0414 61.92669,0.523301 0.11045,0.287821 0.19158,6.191832 0.18028,13.120026 l -0.0205,12.596725 h -61.9062 -61.90616 z m 110.46194,-43.215052 c -4.04446,-0.54156 -8.41322,-2.308974 -10.95727,-4.432844 l -1.08582,-0.906478 0.8261,-1.082863 c 0.45435,-0.595576 1.45816,-1.771713 2.23067,-2.613644 l 1.40458,-1.530778 1.92001,1.293555 c 4.65066,3.133264 10.19791,3.767416 12.86765,1.471005 1.64354,-1.413706 1.04918,-3.988428 -1.18687,-5.141444 -0.44042,-0.227102 -3.01551,-1.082357 -5.72243,-1.90057 -6.99927,-2.115646 -8.67339,-3.11895 -10.11255,-6.060492 -1.01173,-2.067908 -1.15904,-5.691909 -0.33251,-8.180339 1.8183,-5.47443 8.97517,-8.18366 16.80673,-6.3622 1.86446,0.43364 6.41269,2.59202 7.12832,3.38276 0.53297,0.58893 0.48901,0.70933 -1.09026,2.98646 -0.90508,1.30503 -1.75484,2.494527 -1.88836,2.643324 -0.13352,0.148796 -1.58982,-0.395461 -3.23623,-1.209464 -3.36808,-1.66521 -6.26493,-2.17677 -8.3778,-1.47946 -3.02905,0.99968 -3.31673,4.500256 -0.48997,5.962031 0.53177,0.274989 2.90482,1.066674 5.27344,1.759299 6.60227,1.930616 9.00234,3.323767 10.51544,6.103827 2.32144,4.265263 0.9276,10.166314 -3.08849,13.075549 -2.53417,1.835751 -7.32348,2.769209 -11.40438,2.222766 z m -98.47513,-0.705035 c -0.0842,-0.22 -0.1157,-8.104016 -0.07,-17.520035 l 0.0832,-17.120032 7.91375,-0.0856 c 9.06855,-0.0981 11.00027,0.16465 14.85965,2.02094 2.93675,1.41252 5.88284,4.22844 7.37668,7.050769 3.5677,6.740456 2.38771,15.384994 -2.80948,20.582192 -2.30231,2.302302 -6.04538,4.285755 -9.42056,4.991952 -2.98676,0.624928 -17.69951,0.69039 -17.93325,0.07979 z m 17.8355,-7.101768 c 4.49825,-1.635839 7.25761,-6.925652 6.32172,-12.118987 -0.73714,-4.090462 -3.26671,-7.084951 -6.94458,-8.220932 -2.42843,-0.75006 -8.94727,-0.92251 -9.61541,-0.25437 -0.5178,0.5178 -0.54881,19.830169 -0.0334,20.793249 0.33285,0.621932 0.56397,0.647337 4.56001,0.501243 2.82885,-0.103421 4.70208,-0.333062 5.71164,-0.700203 z m 21.84596,7.105365 c -0.085,-0.221978 -0.11708,-8.107613 -0.0713,-17.523632 l 0.0832,-17.120032 12.93887,-0.0837 c 10.13869,-0.0656 12.99432,0.004 13.19512,0.32 0.44641,0.70319 0.31538,5.56439 -0.16061,5.95943 -0.28416,0.23584 -3.4639,0.38253 -9.52002,0.43918 l -9.09334,0.0851 v 3.520009 3.520007 l 8.16001,0.16 8.16002,0.16 0.0911,3.274583 0.0911,3.274579 -8.25115,0.08543 -8.25115,0.08542 v 3.680007 3.680007 l 9.44002,0.160001 9.44001,0.16 v 3.200006 3.200006 l -13.04868,0.0836 c -10.26765,0.06578 -13.08162,-0.0026 -13.2032,-0.320001 z m 78.89199,-0.04612 c 0,-0.542507 13.92695,-33.351304 14.58438,-34.357544 0.43522,-0.66613 0.70633,-0.72 3.62385,-0.72 2.24935,0 3.25574,0.12325 3.51023,0.4299 0.48148,0.58014 14.76161,34.124581 14.76161,34.675442 0,0.347128 -0.75878,0.416824 -3.75479,0.344888 l -3.75479,-0.09016 -0.96522,-2.260967 c -0.53087,-1.243532 -1.27683,-3.007536 -1.65769,-3.920008 l -0.69247,-1.65904 h -7.33795 c -6.59208,0 -7.3868,0.05692 -7.81861,0.560001 -0.26436,0.308001 -1.01997,1.928004 -1.67913,3.600007 -0.65917,1.672004 -1.34682,3.220007 -1.52813,3.440007 -0.4961,0.601988 -7.29129,0.562353 -7.29129,-0.04253 z m 22.70814,-14.677501 c -0.0277,-0.931874 -4.13284,-10.328002 -4.54964,-10.413583 -0.3165,-0.06499 -1.10283,1.48937 -2.57499,5.090087 -1.16564,2.851008 -2.04428,5.305118 -1.95253,5.453573 0.0917,0.148457 2.17433,0.269924 4.62794,0.269924 3.36192,0 4.45819,-0.09856 4.44922,-0.400001 z m 19.99874,14.720029 c -0.0842,-0.22 -0.1157,-8.104016 -0.07,-17.520035 l 0.0832,-17.120037 3.37469,-0.0902 c 3.16369,-0.0845 3.41654,-0.0445 4.04428,0.64 0.36828,0.40158 4.00809,5.12216 8.08845,10.490178 4.08037,5.368011 7.58846,9.76002 7.79575,9.76002 0.27817,0 0.41879,-2.72407 0.53689,-10.400021 l 0.16,-10.400027 h 3.520008 3.520007 v 17.440041 17.440034 h -3.186827 -3.186818 l -8.1732,-10.780565 c -4.49526,-5.929308 -8.35321,-10.789317 -8.57321,-10.800021 -0.31217,-0.01517 -0.4,2.25827 -0.4,10.354391 0,5.705619 -0.0874,10.601628 -0.19423,10.880022 -0.16072,0.41882 -0.79752,0.506174 -3.69005,0.506174 -2.50165,0 -3.53937,-0.113754 -3.64894,-0.400001 z m 48.371429,-0.09605 c -0.10897,-0.283963 -0.19812,-6.624531 -0.19812,-14.090153 v -13.573859 h -4.77384 c -2.625615,0 -5.00162,-0.0874 -5.28001,-0.19424 -0.416681,-0.15989 -0.506171,-0.78282 -0.506171,-3.52326 v -3.32902 l 14.480028,0.0833 14.480029,0.0833 0.091,3.07168 c 0.0676,2.28252 -0.0204,3.1641 -0.34237,3.43137 -0.268191,0.22257 -2.315465,0.39346 -5.371011,0.44831 l -4.93764,0.0887 -0.16,13.920027 -0.160001,13.920027 -3.561887,0.09013 c -3.036086,0.07682 -3.591137,0.01392 -3.760007,-0.426174 z m 21.881923,0.11216 c 0,-0.474209 13.982278,-33.414342 14.613359,-34.426862 0.434201,-0.69665 0.613431,-0.72646 3.847738,-0.64 l 3.392307,0.0907 7.299074,17.120033 c 4.014488,9.416018 7.305485,17.376604 7.313335,17.690192 0.013,0.520183 -0.313801,0.562254 -3.728838,0.480001 l -3.743087,-0.09015 -1.489273,-3.616362 c -0.819102,-1.988999 -1.628683,-3.755774 -1.799074,-3.926164 -0.18688,-0.186881 -3.221256,-0.275617 -7.647665,-0.223646 l -7.337854,0.08616 -0.640002,1.287817 c -0.352,0.708299 -1.118692,2.472303 -1.703753,3.920008 l -1.063742,2.632188 h -3.656267 c -2.629826,0 -3.656258,-0.10777 -3.656258,-0.383889 z m 22.720045,-14.763578 c 0,-0.902994 -4.081508,-10.29692 -4.509429,-10.378834 -0.30833,-0.05902 -1.120952,1.557367 -2.574025,5.12001 -1.167892,2.863443 -2.059394,5.314261 -1.981114,5.446261 0.0783,0.132 2.149825,0.240001 4.60344,0.240001 3.508296,0 4.461128,-0.0913 4.461128,-0.427438 z m 35.3468603,14.747463 c -0.0842,-0.22 -0.1157002,-8.104016 -0.07,-17.520035 l 0.0832,-17.120032 H 14.482814 27.76284 v 3.2 3.20001 l -9.440019,0.16 -9.4400184,0.16 v 3.840009 3.840008 l 8.1446064,0.08563 c 6.026232,0.06336 8.209756,0.188202 8.395106,0.480001 0.137791,0.216902 0.250531,1.546371 0.250531,2.954374 0,1.408003 -0.11274,2.737471 -0.250531,2.954374 -0.18535,0.291798 -2.368874,0.416644 -8.395106,0.480001 l -8.1446064,0.08563 -0.1764304,6.720013 c -0.097,3.696008 -0.2050304,6.756014 -0.2400004,6.800014 -0.035,0.044 -1.6520933,0.08 -3.5936172,0.08 -2.529045,0 -3.573477,-0.113427 -3.6831773,-0.400001 z m 33.2800557,0 c -0.0842,-0.22 -0.11568,-8.104016 -0.0699,-17.520035 l 0.0832,-17.120032 h 13.120026 13.120026 v 3.2 3.20001 l -9.264238,0.085 c -6.922254,0.0635 -9.327639,0.18486 -9.515129,0.48 -0.295101,0.46462 -0.349181,5.712021 -0.0664,6.448828 0.17002,0.443099 1.202532,0.506174 8.285776,0.506174 7.083244,0 8.115756,0.06308 8.285777,0.506174 0.10685,0.278394 0.19424,1.56262 0.19424,2.853833 0,1.291212 -0.0874,2.575439 -0.19424,2.853832 -0.170021,0.443099 -1.202533,0.506174 -8.285777,0.506174 -7.083244,0 -8.115756,0.06307 -8.285776,0.506174 -0.10685,0.278394 -0.19424,1.778621 -0.19424,3.333834 0,1.555213 0.0874,3.05544 0.19424,3.333834 0.17101,0.445619 1.315363,0.506174 9.565779,0.506174 8.250416,0 9.394768,0.06055 9.565779,0.506174 0.10685,0.278393 0.19424,1.56262 0.19424,2.853832 0,1.291213 -0.0874,2.575439 -0.19424,2.853833 -0.172741,0.450155 -1.643583,0.506174 -13.290076,0.506174 -10.181651,0 -13.129916,-0.08901 -13.248957,-0.400001 z M -178.47757,-118.32989 c -5.17419,-1.11529 -10.33155,-5.0531 -12.44743,-9.50403 -3.48744,-7.33607 -2.07606,-15.58702 3.62587,-21.1968 10.12374,-9.96015 28.1695,-5.06293 31.36963,8.51301 1.49,6.32105 -0.2597,12.61029 -4.7615,17.11506 -4.61988,4.62294 -11.18583,6.49556 -17.78657,5.07276 z m 9.09994,-7.49107 c 6.73541,-3.26055 8.16115,-13.39114 2.60535,-18.5123 -2.51198,-2.31547 -3.74062,-2.77749 -7.38528,-2.77721 -2.84672,2.2e-4 -3.37807,0.0942 -4.81285,0.85136 -1.97283,1.04108 -4.10433,3.29561 -5.0279,5.3181 -0.55513,1.21566 -0.69256,2.13557 -0.70447,4.71523 -0.0138,2.99116 0.0554,3.34755 1.03696,5.34317 1.23639,2.5136 3.2324,4.41802 5.62235,5.36438 2.31671,0.91736 6.44327,0.7732 8.66584,-0.30273 z m 128.820345,7.49107 c -7.038244,-1.5171 -12.349125,-7.08093 -13.645267,-14.29518 -1.748804,-9.73376 3.996358,-18.72621 13.531456,-21.17973 4.154769,-1.06908 9.96936,-0.4151 13.822198,1.55462 1.522343,0.77828 4.211648,2.91646 4.211648,3.34853 0,0.36733 -4.169478,5.15094 -4.489649,5.15094 -0.15507,0 -1.107952,-0.57862 -2.117524,-1.28584 -2.210564,-1.5485 -4.357019,-2.23417 -6.993934,-2.23417 -3.035696,0 -4.807859,0.75932 -7.092784,3.03907 -1.713683,1.7098 -2.066944,2.27588 -2.680185,4.29482 -1.427143,4.69856 -0.253681,9.4274 3.099996,12.49248 2.269854,2.07452 4.152568,2.69612 7.591525,2.50646 2.819296,-0.15549 4.670039,-0.8848 7.037304,-2.77314 0.898652,-0.71686 1.378393,-0.90809 1.762433,-0.70256 0.746412,0.39947 4.202819,4.06868 4.202819,4.46158 0,0.60776 -3.667797,3.33249 -5.920012,4.39788 -3.576267,1.69168 -8.076686,2.1389 -12.320024,1.22424 z m -96.304075,-0.28134 c -0.55596,-0.66988 -14.06134,-34.53477 -13.88609,-34.8195 0.0812,-0.132 1.86215,-0.24 3.95757,-0.24 3.3017,0 3.84957,0.0747 4.10757,0.56 0.16374,0.308 2.19367,5.67201 4.51094,11.92002 2.31728,6.24801 4.34597,11.49442 4.50823,11.6587 0.16225,0.16426 0.38277,0.21089 0.49005,0.10362 0.10727,-0.10728 1.84152,-4.63369 3.85389,-10.05869 2.01236,-5.42501 4.02759,-10.83565 4.47827,-12.02365 l 0.81943,-2.16 h 3.79315 c 2.08622,0 3.8609,0.10966 3.94374,0.24368 0.17286,0.27968 -13.36167,34.18044 -13.90991,34.84104 -0.52506,0.63266 -6.13848,0.61142 -6.66684,-0.0252 z m -124.81637,-17.44899 v -17.61051 h 8.25278 c 8.86059,0 10.43302,0.20217 13.44549,1.7287 1.86638,0.94576 4.04162,3.24564 4.9703,5.2551 0.58182,1.25893 0.69148,2.07983 0.69148,5.17622 0,3.0964 -0.10966,3.91729 -0.69148,5.17622 -1.42488,3.08312 -4.63141,5.62127 -8.43661,6.67809 -0.78756,0.21873 -3.51993,0.485 -6.07194,0.59171 l -4.64001,0.19401 -0.16,5.12001 -0.16,5.12001 -3.60001,0.0905 -3.6,0.0905 z m 17.06859,-0.46049 c 3.58324,-1.77917 3.9128,-7.12058 0.57799,-9.36791 -1.2491,-0.84177 -3.38186,-1.13676 -7.24656,-1.0023 l -2.88001,0.1002 -0.0885,5.10717 c -0.0487,2.80894 -0.0128,5.30439 0.0797,5.54544 0.27642,0.72034 7.9551,0.41295 9.55733,-0.3826 z m 16.72959,17.554 c -0.25634,-0.66802 -0.26007,-33.53023 -0.004,-34.19785 0.17065,-0.44471 1.2709,-0.50617 9.06125,-0.50617 5.04445,0 9.68557,0.15082 10.76578,0.34985 2.69068,0.49575 4.9754,1.67114 6.53302,3.36096 1.86648,2.02489 2.61125,3.88293 2.80569,6.99956 0.29876,4.78881 -1.26693,8.06138 -5.06472,10.58616 -1.21837,0.80996 -2.21521,1.5386 -2.21521,1.61918 0,0.0806 1.73388,2.66509 3.85307,5.74332 2.1192,3.07825 3.93625,5.81356 4.03791,6.07848 0.15992,0.41674 -0.3918,0.46959 -4.09308,0.39211 l -4.2779,-0.0896 -3.79336,-5.5312 -3.79336,-5.5312 -3.08666,0.0912 -3.08665,0.0912 -0.16,5.44001 -0.16,5.44001 -3.56189,0.0901 c -3.03608,0.0768 -3.59113,0.0139 -3.76001,-0.42617 z m 19.00083,-18.24129 c 0.61541,-0.36152 1.45602,-1.15352 1.86804,-1.76 0.63784,-0.93889 0.73044,-1.40591 0.62333,-3.14358 -0.11492,-1.86425 -0.22589,-2.1326 -1.28233,-3.10075 -1.60995,-1.47541 -3.05352,-1.77055 -8.15598,-1.6675 l -4.41199,0.0891 -0.0889,4.78595 c -0.0489,2.63228 -0.0126,4.98492 0.0807,5.22811 0.13692,0.35681 1.14247,0.42129 5.20894,0.33406 4.38675,-0.0941 5.18416,-0.19321 6.15819,-0.7654 z m 99.34809,18.33734 c -0.0842,-0.22 -0.1157,-8.10402 -0.07,-17.52004 l 0.0832,-17.12003 3.60001,-0.0905 3.6,-0.0905 v 17.61051 17.61052 h -3.53005 c -2.52904,0 -3.57347,-0.11343 -3.68317,-0.4 z m 16.644201,0.0109 c -0.08651,-0.22598 -0.11987,-8.1149 -0.07413,-17.53092 l 0.0832,-17.12003 3.410597,-0.0905 3.410597,-0.0905 8.041195,10.57055 c 4.422649,5.8138 8.179887,10.57055 8.349417,10.57055 0.19107,0 0.310101,-3.86196 0.313141,-10.16002 0.003,-5.58801 0.12235,-10.34514 0.26591,-10.57139 0.192731,-0.30376 1.175122,-0.38747 3.755108,-0.32 l 3.494067,0.0914 v 17.44003 17.44004 l -3.085977,0.0912 c -2.274904,0.0672 -3.200046,-0.0232 -3.520007,-0.34408 -0.23872,-0.23939 -4.018748,-5.14043 -8.400056,-10.89121 -4.381309,-5.75076 -8.159406,-10.45594 -8.395757,-10.45594 -0.349501,0 -0.445471,2.01659 -0.514001,10.80003 l -0.0842,10.80002 -3.445877,0.0909 c -2.577935,0.068 -3.485497,-0.0126 -3.603177,-0.32 z m 77.760024,-3.2e-4 c -0.08644,-0.22582 -0.11974,-8.11458 -0.074,-17.5306 l 0.0832,-17.12003 h 3.680007 3.6800076 v 17.44003 17.44004 l -3.6060076,0.0905 c -2.706415,0.0679 -3.645217,-0.0119 -3.763177,-0.32 z m 13.9291976,0.0865 c 0,-0.44108 14.4050584,-34.31298 14.8114294,-34.82745 0.23567,-0.29834 1.245642,-0.38568 3.700577,-0.32 l 3.376447,0.0904 7.430165,17.44003 c 4.086568,9.59202 7.321554,17.55298 7.188814,17.69102 -0.13274,0.13803 -1.877444,0.21003 -3.877158,0.16 l -3.635817,-0.091 -1.335433,-3.33637 c -2.016324,-5.03747 -0.899871,-4.50365 -9.418988,-4.50365 -8.5191271,0 -7.4026649,-0.53383 -9.4190289,4.50365 l -1.3354627,3.33637 -3.7427674,0.0902 c -2.36665465,0.057 -3.7427774,-0.0287 -3.7427774,-0.23312 z m 22.7022854,-14.97706 c -0.0367,-1.15736 -3.988928,-10.16002 -4.460309,-10.16002 -0.475261,0 -4.445729,9.02464 -4.469989,10.16002 -0.0108,0.50724 0.410151,0.56 4.468049,0.56 4.060098,0 4.478339,-0.0525 4.462249,-0.56 z"
       id="path66"
       inkscape:connector-curvature="0" />
    <path
       style="fill:#5d5a5b;stroke-width:0.31999999"
       d="m -189.93609,-72.405426 c -4.04445,-0.541559 -8.4132,-2.30897 -10.95725,-4.432836 l -1.08581,-0.906476 0.82609,-1.082861 c 0.45435,-0.595575 1.45816,-1.771709 2.23067,-2.613639 l 1.40458,-1.530774 1.92,1.293552 c 4.65065,3.133258 10.19789,3.767408 12.86763,1.471002 1.64353,-1.413703 1.04917,-3.98842 -1.18687,-5.141434 -0.44042,-0.227101 -3.0155,-1.082355 -5.72242,-1.900566 -6.99926,-2.115642 -8.67337,-3.118944 -10.11253,-6.06048 -1.01173,-2.067904 -1.15904,-5.691898 -0.33251,-8.180322 1.8183,-5.47442 8.97515,-8.18364 16.8067,-6.36219 1.86445,0.43364 6.41268,2.59202 7.1283,3.38276 0.53297,0.58892 0.48901,0.70932 -1.09025,2.98645 -0.90508,1.30503 -1.75484,2.494521 -1.88836,2.643318 -0.13352,0.148796 -1.58982,-0.39546 -3.23622,-1.209458 -3.36808,-1.66521 -6.26492,-2.17677 -8.37779,-1.47946 -3.02904,0.99968 -3.31672,4.500246 -0.48997,5.962018 0.53177,0.274989 2.90482,1.066672 5.27343,1.759296 6.60226,1.930612 9.00233,3.32376 10.51542,6.103815 2.32144,4.265254 0.9276,10.166294 -3.08848,13.075523 -2.53417,1.835747 -7.32347,2.769203 -11.40436,2.222762 z m -98.47493,-0.705034 c -0.0842,-0.22 -0.1157,-8.104 -0.07,-17.52 l 0.0832,-17.12 7.91373,-0.0856 c 9.06853,-0.0981 11.00025,0.16465 14.85962,2.02094 2.93675,1.41251 5.88283,4.22843 7.37667,7.050753 3.56769,6.740442 2.3877,15.384963 -2.80948,20.582151 -2.3023,2.302297 -6.04537,4.285747 -9.42054,4.991942 -2.98675,0.624927 -17.69947,0.690389 -17.93321,0.07979 z m 17.83546,-7.101754 c 4.49824,-1.635836 7.2576,-6.925638 6.32171,-12.118963 -0.73714,-4.090454 -3.26671,-7.084937 -6.94457,-8.220913 -2.42842,-0.75006 -8.94725,-0.92251 -9.61539,-0.25437 -0.5178,0.5178 -0.54881,19.830128 -0.0334,20.793206 0.33285,0.62193 0.56397,0.647335 4.56,0.501242 2.82885,-0.103421 4.70207,-0.333062 5.71163,-0.700202 z m 21.84592,7.105351 c -0.085,-0.221978 -0.11708,-8.107597 -0.0713,-17.523597 l 0.0832,-17.12 12.93884,-0.0837 c 10.13867,-0.0656 12.9943,0.004 13.1951,0.32 0.4464,0.70319 0.31538,5.56438 -0.16061,5.95942 -0.28416,0.23584 -3.4639,0.38253 -9.52,0.43918 l -9.09333,0.0851 v 3.52 3.52 l 8.16,0.16 8.16,0.16 0.0911,3.274576 0.0911,3.274573 -8.25113,0.08543 -8.25114,0.08542 v 3.68 3.68 l 9.44,0.16 9.44,0.16 v 3.2 3.2 l -13.04866,0.0836 c -10.26763,0.06578 -13.08159,-0.0026 -13.20317,-0.32 z m 78.89183,-0.04612 c 0,-0.542506 13.92692,-33.351237 14.58435,-34.357477 0.43522,-0.66613 0.70633,-0.72 3.62385,-0.72 2.24934,0 3.25573,0.12325 3.51022,0.4299 0.48148,0.58014 14.76158,34.124515 14.76158,34.675375 0,0.347127 -0.75878,0.416823 -3.75478,0.344887 l -3.75479,-0.09016 -0.96521,-2.260963 c -0.53087,-1.24353 -1.27683,-3.00753 -1.65769,-3.92 l -0.69247,-1.659037 h -7.33793 c -6.59207,0 -7.38679,0.05692 -7.8186,0.56 -0.26436,0.308 -1.01997,1.928 -1.67913,3.6 -0.65916,1.672 -1.34681,3.22 -1.52812,3.44 -0.4961,0.601987 -7.29128,0.562352 -7.29128,-0.04253 z m 22.7081,-14.677472 c -0.0277,-0.931872 -4.13284,-10.327981 -4.54963,-10.413562 -0.3165,-0.06499 -1.10283,1.489367 -2.57499,5.090077 -1.16564,2.851002 -2.04428,5.305107 -1.95253,5.453562 0.0917,0.148457 2.17433,0.269923 4.62794,0.269923 3.36191,0 4.45818,-0.09856 4.44921,-0.4 z m 19.9987,14.72 c -0.0842,-0.22 -0.1157,-8.104 -0.07,-17.52 l 0.0832,-17.120005 3.37468,-0.0902 c 3.16368,-0.0845 3.41653,-0.0445 4.04427,0.64 0.36828,0.40158 4.00808,5.12215 8.08844,10.490158 4.08036,5.368 7.58844,9.76 7.79573,9.76 0.27817,0 0.41879,-2.724064 0.53689,-10.4 l 0.16,-10.400008 h 3.52 3.52 v 17.440008 17.44 h -3.18682 -3.18681 l -8.17319,-10.780544 c -4.49525,-5.929296 -8.35319,-10.789296 -8.57319,-10.8 -0.31217,-0.01517 -0.4,2.258266 -0.4,10.354371 0,5.705607 -0.0874,10.601607 -0.19423,10.88 -0.16072,0.418819 -0.79752,0.506173 -3.69004,0.506173 -2.50165,0 -3.53936,-0.113754 -3.64893,-0.4 z m 48.37133,-0.09605 c -0.10897,-0.283962 -0.19812,-6.624518 -0.19812,-14.090125 v -13.57383 h -4.77383 c -2.62561,0 -5.00161,-0.0874 -5.28,-0.19424 -0.41668,-0.15989 -0.50617,-0.78282 -0.50617,-3.52325 v -3.32902 l 14.48,0.0833 14.48,0.0833 0.091,3.07168 c 0.0676,2.28251 -0.0204,3.16409 -0.34237,3.43136 -0.26819,0.22257 -2.31546,0.39346 -5.371,0.44831 l -4.93763,0.0887 -0.16,13.919997 -0.16,13.92 -3.56188,0.09013 c -3.03608,0.07682 -3.59113,0.01392 -3.76,-0.426173 z m 21.88188,0.11216 c 0,-0.474208 13.98225,-33.414275 14.61333,-34.426795 0.4342,-0.69665 0.61343,-0.72646 3.84773,-0.64 l 3.3923,0.0907 7.29906,17.120001 c 4.01448,9.416 7.30547,17.37657 7.31332,17.690157 0.013,0.520182 -0.3138,0.562253 -3.72883,0.48 l -3.74308,-0.09015 -1.48927,-3.616355 c -0.8191,-1.988995 -1.62868,-3.755767 -1.79907,-3.926157 -0.18688,-0.18688 -3.22125,-0.275616 -7.64765,-0.223645 l -7.33784,0.08616 -0.64,1.287814 c -0.352,0.708298 -1.11869,2.472298 -1.70375,3.92 l -1.06374,2.632183 h -3.65626 c -2.62982,0 -3.65625,-0.10777 -3.65625,-0.383888 z m 22.72,-14.763549 c 0,-0.902992 -4.0815,-10.296899 -4.50942,-10.378813 -0.30833,-0.05902 -1.12095,1.557364 -2.57402,5.12 -1.16789,2.863437 -2.05939,5.31425 -1.98111,5.44625 0.0783,0.132 2.14982,0.24 4.60343,0.24 3.50829,0 4.46112,-0.0913 4.46112,-0.427437 z M 1.18899,-73.11046 c -0.0842,-0.22 -0.1157,-8.104 -0.07,-17.52 l 0.0832,-17.12 h 13.28 13.28 v 3.2 3.2 l -9.44,0.16 -9.44,0.16 v 3.84 3.84 l 8.14459,0.08563 c 6.02622,0.06336 8.20974,0.188202 8.39509,0.48 0.13779,0.216902 0.25053,1.546368 0.25053,2.954368 0,1.408 -0.11274,2.737466 -0.25053,2.954368 -0.18535,0.291798 -2.36887,0.416643 -8.39509,0.48 l -8.14459,0.08563 -0.17643,6.72 c -0.097,3.696 -0.20503,6.756 -0.24,6.8 -0.035,0.044 -1.65209,0.08 -3.59361,0.08 -2.52904,0 -3.57347,-0.113427 -3.68317,-0.4 z m 33.27999,0 c -0.0842,-0.22 -0.11568,-8.104 -0.0699,-17.52 l 0.0832,-17.12 h 13.12 13.12 v 3.2 3.2 l -9.26422,0.085 c -6.92224,0.0635 -9.32762,0.18486 -9.51511,0.48 -0.2951,0.46462 -0.34918,5.712007 -0.0664,6.448813 0.17002,0.443098 1.20253,0.506173 8.28576,0.506173 7.08323,0 8.11574,0.06308 8.28576,0.506173 0.10685,0.278393 0.19424,1.562617 0.19424,2.853827 0,1.29121 -0.0874,2.575434 -0.19424,2.853827 -0.17002,0.443098 -1.20253,0.506173 -8.28576,0.506173 -7.08323,0 -8.11574,0.06307 -8.28576,0.506173 -0.10685,0.278393 -0.19424,1.778617 -0.19424,3.333827 0,1.55521 0.0874,3.055434 0.19424,3.333827 0.17101,0.445619 1.31536,0.506173 9.56576,0.506173 8.2504,0 9.39475,0.06055 9.56576,0.506173 0.10685,0.278393 0.19424,1.562617 0.19424,2.853827 0,1.29121 -0.0874,2.575434 -0.19424,2.853827 -0.17274,0.450154 -1.64358,0.506173 -13.29005,0.506173 -10.18163,0 -13.12989,-0.08901 -13.24893,-0.4 z m -212.94679,-45.21923 c -5.17418,-1.11529 -10.33153,-5.05309 -12.44741,-9.50401 -3.48743,-7.33605 -2.07605,-15.58699 3.62587,-21.19676 10.12372,-9.96013 28.16944,-5.06292 31.36956,8.513 1.49,6.32103 -0.2597,12.61026 -4.76149,17.11502 -4.61987,4.62293 -11.1858,6.49555 -17.78653,5.07275 z m 9.09992,-7.49105 c 6.7354,-3.26055 8.16113,-13.39112 2.60535,-18.51227 -2.51198,-2.31546 -3.74062,-2.77748 -7.38527,-2.7772 -2.84671,2.2e-4 -3.37806,0.0942 -4.81284,0.85136 -1.97283,1.04108 -4.10432,3.2956 -5.02789,5.31809 -0.55513,1.21565 -0.69256,2.13556 -0.70447,4.71522 -0.0138,2.99115 0.0554,3.34754 1.03696,5.34316 1.23639,2.51359 3.23239,4.41801 5.62234,5.36437 2.3167,0.91735 6.44325,0.7732 8.66582,-0.30273 z m 128.82009,7.49105 c -7.03823,-1.51709 -12.3491,-7.08091 -13.64524,-14.29515 -1.7488,-9.73374 3.99635,-18.72617 13.53143,-21.17969 4.15476,-1.06908 9.96934,-0.4151 13.82217,1.55462 1.52234,0.77828 4.21164,2.91645 4.21164,3.34852 0,0.36733 -4.16947,5.15093 -4.48964,5.15093 -0.15507,0 -1.10795,-0.57862 -2.11752,-1.28583 -2.21056,-1.5485 -4.35701,-2.23417 -6.99392,-2.23417 -3.03569,0 -4.80785,0.75932 -7.09277,3.03906 -1.71368,1.7098 -2.06694,2.27588 -2.68018,4.29482 -1.42714,4.69855 -0.25368,9.42738 3.09999,12.49245 2.26985,2.07452 4.15256,2.69612 7.59151,2.50646 2.81929,-0.15549 4.67003,-0.8848 7.03729,-2.77314 0.89865,-0.71686 1.37839,-0.90809 1.76243,-0.70256 0.74641,0.39947 4.20281,4.06867 4.20281,4.46157 0,0.60776 -3.66779,3.33249 -5.92,4.39787 -3.57626,1.69168 -8.07667,2.1389 -12.32,1.22424 z m -96.30388,-0.28134 c -0.55596,-0.66988 -14.06132,-34.5347 -13.88607,-34.81943 0.0812,-0.132 1.86215,-0.24 3.95757,-0.24 3.30169,0 3.84956,0.0747 4.10756,0.56 0.16374,0.308 2.19366,5.672 4.51093,11.92 2.31727,6.248 4.34596,11.4944 4.50822,11.65867 0.16225,0.16426 0.38277,0.21089 0.49005,0.10362 0.10727,-0.10728 1.84152,-4.63368 3.85388,-10.05867 2.01236,-5.42499 4.02758,-10.83562 4.47826,-12.02362 l 0.81943,-2.16 h 3.79314 c 2.08622,0 3.8609,0.10966 3.94374,0.24368 0.17285,0.27968 -13.36165,34.18037 -13.90989,34.84097 -0.52506,0.63266 -6.13846,0.61142 -6.66682,-0.0252 z m -124.81613,-17.44895 v -17.61048 h 8.25277 c 8.86057,0 10.433,0.20217 13.44546,1.7287 1.86638,0.94576 4.04161,3.24563 4.97029,5.25509 0.58182,1.25893 0.69148,2.07982 0.69148,5.17621 0,3.09639 -0.10966,3.91728 -0.69148,5.17621 -1.42488,3.08311 -4.6314,5.62126 -8.43659,6.67807 -0.78756,0.21873 -3.51993,0.485 -6.07193,0.59171 l -4.64,0.19401 -0.16,5.12 -0.16,5.12 -3.6,0.0905 -3.6,0.0905 z m 17.06856,-0.46049 c 3.58323,-1.77917 3.91279,-7.12057 0.57799,-9.36789 -1.2491,-0.84177 -3.38185,-1.13676 -7.24655,-1.0023 l -2.88,0.1002 -0.0885,5.10716 c -0.0487,2.80893 -0.0128,5.30438 0.0797,5.54543 0.27642,0.72034 7.95508,0.41295 9.55731,-0.3826 z m 16.72956,17.55396 c -0.25634,-0.66801 -0.26007,-33.53016 -0.004,-34.19778 0.17065,-0.44471 1.27089,-0.50617 9.06123,-0.50617 5.04444,0 9.68555,0.15082 10.76576,0.34985 2.69067,0.49575 4.97539,1.67114 6.533,3.36096 1.86648,2.02488 2.61125,3.88292 2.80569,6.99954 0.29876,4.7888 -1.26693,8.06137 -5.06471,10.58614 -1.21837,0.80996 -2.21521,1.5386 -2.21521,1.61918 0,0.0806 1.73388,2.66508 3.85307,5.74331 2.11919,3.07824 3.93624,5.81354 4.0379,6.07846 0.15992,0.41674 -0.3918,0.46959 -4.09307,0.39211 l -4.2779,-0.0896 -3.79335,-5.53119 -3.79335,-5.53118 -3.08665,0.0912 -3.08665,0.0912 -0.16,5.44 -0.16,5.44 -3.56188,0.0901 c -3.03608,0.0768 -3.59112,0.0139 -3.76,-0.42617 z m 19.00079,-18.24125 c 0.61541,-0.36152 1.45602,-1.15352 1.86804,-1.76 0.63783,-0.93888 0.73043,-1.4059 0.62332,-3.14357 -0.11492,-1.86425 -0.22589,-2.1326 -1.28232,-3.10074 -1.60995,-1.47541 -3.05352,-1.77055 -8.15597,-1.6675 l -4.41198,0.0891 -0.0889,4.78594 c -0.0489,2.63227 -0.0126,4.98491 0.0807,5.2281 0.13692,0.35681 1.14247,0.42129 5.20893,0.33406 4.38674,-0.0941 5.18415,-0.19321 6.15818,-0.7654 z m 99.34789,18.3373 c -0.0842,-0.22 -0.1157,-8.104 -0.07,-17.52 l 0.0832,-17.12 3.6,-0.0905 3.6,-0.0905 v 17.61048 17.61048 h -3.53005 c -2.52903,0 -3.57346,-0.11343 -3.68316,-0.4 z m 16.64417,0.0109 c -0.08651,-0.22598 -0.11987,-8.11488 -0.07413,-17.53088 l 0.0832,-17.12 3.41059,-0.0905 3.41059,-0.0905 8.04118,10.57053 c 4.42264,5.81379 8.17987,10.57053 8.3494,10.57053 0.19107,0 0.3101,-3.86195 0.31314,-10.16 0.003,-5.588 0.12235,-10.34512 0.26591,-10.57137 0.19273,-0.30376 1.17512,-0.38747 3.7551,-0.32 l 3.49406,0.0914 v 17.44 17.44 l -3.08597,0.0912 c -2.2749,0.0672 -3.20004,-0.0232 -3.52,-0.34408 -0.23872,-0.23939 -4.01874,-5.14042 -8.40004,-10.89118 -4.3813,-5.75075 -8.15939,-10.45592 -8.39574,-10.45592 -0.3495,0 -0.44547,2.01658 -0.514,10.8 l -0.0842,10.8 -3.44587,0.0909 c -2.57793,0.068 -3.48549,-0.0126 -3.60317,-0.32 z m 77.75987,-3.2e-4 c -0.08644,-0.22582 -0.11974,-8.11456 -0.074,-17.53056 l 0.0832,-17.12 h 3.68 3.68 v 17.44 17.44 l -3.606,0.0905 c -2.70641,0.0679 -3.64521,-0.0119 -3.76317,-0.32 z m 13.92917,0.0865 c 0,-0.44108 14.40503,-34.31291 14.8114,-34.82738 0.23567,-0.29834 1.24564,-0.38568 3.70057,-0.32 l 3.37644,0.0904 7.43015,17.44 c 4.08656,9.592 7.32154,17.55294 7.1888,17.69098 -0.13274,0.13803 -1.87744,0.21003 -3.87715,0.16 l -3.63581,-0.091 -1.33543,-3.33636 c -2.01632,-5.03746 -0.89987,-4.50364 -9.41897,-4.50364 -8.51911,0 -7.40265,-0.53383 -9.41901,4.50364 l -1.33546,3.33636 -3.74276,0.0902 c -2.36665,0.057 -3.74277,-0.0287 -3.74277,-0.23312 z m 22.70224,-14.97703 c -0.0367,-1.15735 -3.98892,-10.16 -4.4603,-10.16 -0.47526,0 -4.44572,9.02463 -4.46998,10.16 -0.0108,0.50724 0.41015,0.56 4.46804,0.56 4.06009,0 4.47833,-0.0525 4.46224,-0.56 z"
       id="path64"
       inkscape:connector-curvature="0" />
    <path
       style="fill:#ffffff;stroke:#ffffff;stroke-width:0.31999999;stroke-opacity:1"
       d="m -191.27781,-72.913199 c -3.457,-0.65592 -9.31962,-3.494263 -9.79928,-4.744253 -0.19647,-0.511971 2.99807,-4.641562 3.59613,-4.64873 0.19626,-0.0022 0.7255,0.285709 1.17609,0.640141 0.45058,0.354429 1.946,1.182429 3.32315,1.84 2.34806,1.121162 2.69314,1.195581 5.54391,1.195581 3.54922,0 4.84075,-0.512685 5.66947,-2.250534 0.40411,-0.847424 0.4567,-1.376416 0.22793,-2.292548 -0.4503,-1.803248 -2.0929,-2.742236 -7.46825,-4.269225 -2.53596,-0.7204 -5.43533,-1.726016 -6.44303,-2.234701 -2.20301,-1.112074 -3.9269,-3.027085 -4.46948,-4.964989 -0.56864,-2.030998 -0.27347,-6.056063 0.56338,-7.682383 0.87377,-1.69809 3.24313,-3.8554 5.11615,-4.65827 3.20794,-1.37508 8.94862,-1.34102 12.79408,0.0759 2.24865,0.82856 5.20975,2.53912 5.20975,3.00955 0,0.18881 -0.7306,1.38029 -1.62356,2.64773 l -1.62356,2.304429 -1.97644,-1.094919 c -4.73376,-2.62245 -9.88111,-2.83337 -11.53462,-0.47265 -0.66165,0.944641 -0.67369,3.12337 -0.0224,4.053226 0.7202,1.028224 1.64047,1.42544 7.18058,3.099347 2.728,0.82425 5.65967,1.879111 6.51482,2.344138 3.90261,2.122224 5.53078,6.382285 4.17899,10.934237 -0.94752,3.190649 -2.53584,4.884688 -6.05381,6.456736 -1.32372,0.591517 -2.26308,0.72784 -5.44,0.789472 -2.112,0.04097 -4.2,0.0062 -4.64,-0.0773 z m -96.74667,-0.330595 c -0.11733,-0.117332 -0.21333,-7.893332 -0.21333,-17.28 v -17.066666 l 7.76,0.006 c 8.8163,0.006 10.83813,0.29363 14.58383,2.07245 2.90259,1.37843 6.25422,4.5927 7.50979,7.201995 2.46896,5.130944 2.41958,11.01903 -0.13489,16.083286 -1.39381,2.763245 -4.4085,5.652247 -7.38,7.072317 -3.68681,1.761866 -6.17662,2.124352 -14.5919,2.124352 -4.02609,0 -7.41616,-0.096 -7.5335,-0.213334 z m 18.45253,-7.096135 c 3.80916,-1.875245 5.80117,-5.298928 5.80117,-9.970531 0,-4.608154 -1.95527,-7.99576 -5.72567,-9.92 -2.14774,-1.09611 -2.28934,-1.12236 -6.63792,-1.23091 -3.16771,-0.0791 -4.57831,9.6e-4 -4.9134,0.27918 -0.39584,0.32851 -0.47004,2.040876 -0.47004,10.846911 0,7.932563 0.0966,10.556195 0.4,10.868493 0.29927,0.308006 1.53121,0.383897 4.89209,0.301363 4.33776,-0.106525 4.56636,-0.146877 6.65377,-1.174506 z m 21.22748,7.096135 c -0.11734,-0.117332 -0.21334,-7.893332 -0.21334,-17.28 v -17.066666 h 12.8 12.8 v 3.03517 3.03516 l -9.36,0.0848 -9.36,0.0848 v 3.840003 3.84 l 8.24,0.0854 8.24,0.0854 v 3.029197 3.029197 l -8.24,0.0854 -8.24,0.0854 v 4 4 l 9.44,0.16 9.44,0.16 0.092,2.96 0.092,2.96 h -12.75868 c -7.01727,0 -12.85467,-0.096 -12.972,-0.213334 z m 78.83407,-0.01584 c 0.004,-0.137956 3.29136,-7.954826 7.30509,-17.370826 l 7.29769,-17.12 h 3.30016 3.30016 l 7.15397,16.8 c 3.93468,9.24 7.23602,17.052 7.33631,17.36 0.16581,0.509229 -0.12069,0.56 -3.16004,0.56 -2.29788,0 -3.43771,-0.125002 -3.64742,-0.4 -0.16778,-0.22 -0.92292,-1.912 -1.67809,-3.76 -0.75517,-1.848 -1.53553,-3.465795 -1.73413,-3.595101 -0.19861,-0.129305 -3.69147,-0.237305 -7.76193,-0.24 -5.97572,-0.004 -7.47278,0.08181 -7.77454,0.445415 -0.20555,0.24767 -1.00115,2.01167 -1.76802,3.92 l -1.39429,3.469686 -3.39116,0.09083 c -1.86514,0.04995 -3.38784,-0.02205 -3.38376,-0.16 z m 21.99259,-13.732519 c 0.47237,-0.126589 0.7125,-0.42775 0.69819,-0.875629 -0.012,-0.375472 -0.98541,-2.986678 -2.16316,-5.802678 -1.7024,-4.070477 -2.26622,-5.12 -2.75053,-5.12 -0.48654,0 -1.04657,1.063072 -2.78153,5.28 -1.19479,2.904 -2.17923,5.52144 -2.18765,5.816538 -0.008,0.295094 0.23668,0.60239 0.54468,0.682876 0.85302,0.222916 7.82183,0.238154 8.64,0.01888 z m 20.70677,13.561693 c -0.0842,-0.22 -0.11572,-7.96 -0.07,-17.2 l 0.0832,-16.8 3.21733,-0.0905 3.21733,-0.0905 7.98267,10.54952 c 4.39047,5.802237 8.17567,10.631431 8.41155,10.731543 0.23589,0.100108 0.55989,0.101052 0.72,0.0022 0.16531,-0.102311 0.29113,-4.7405 0.29113,-10.732378 v -10.552275 l 3.28,0.0912 3.28,0.0912 v 17.12 17.12 l -2.72,0.08165 c -1.496,0.04491 -2.87181,-0.0271 -3.05734,-0.16 -0.18554,-0.132909 -3.9896,-5.043405 -8.45348,-10.912217 -4.46389,-5.868813 -8.32262,-10.749796 -8.57496,-10.846631 -0.25235,-0.09683 -0.58608,0.02493 -0.74162,0.270567 -0.15551,0.245649 -0.28498,5.234631 -0.28768,11.086631 l -0.005,10.64 h -3.21004 c -2.27302,0 -3.25475,-0.116762 -3.36319,-0.4 z m 48.42303,-13.520765 c -0.0771,-11.978797 -0.15741,-13.985655 -0.56979,-14.246185 -0.264,-0.16679 -2.676,-0.30546 -5.36,-0.30815 l -4.88,-0.005 v -3.04333 -3.04333 l 14.16,0.0833 14.16,0.0833 0.092,2.96 0.092,2.96 h -4.91084 c -3.4273,0 -5.07401,0.12084 -5.45094,0.4 -0.48994,0.36287 -0.54761,1.677478 -0.62116,14.160003 l -0.0811,13.76 -3.27021,0.09109 -3.2702,0.09109 z m 21.83021,13.814567 c 0,-0.07032 3.30043,-7.887188 7.33428,-17.370826 l 7.33428,-17.242976 h 3.29939 3.29939 l 7.28633,17.117949 c 4.00748,9.414873 7.28633,17.231744 7.28633,17.370825 0,0.139085 -1.54347,0.212007 -3.42994,0.162052 l -3.42994,-0.09083 -1.62712,-3.84 -1.62712,-3.84 -7.73669,-0.08567 c -8.96907,-0.09932 -7.78075,-0.635964 -9.80812,4.429312 l -1.33538,3.336362 -3.42285,0.09083 c -1.88256,0.04995 -3.42284,0.0333 -3.42284,-0.03702 z m 22,-13.855495 c 0.46677,-0.125088 0.71624,-0.433049 0.70933,-0.875629 -0.0167,-1.067385 -4.01439,-10.549216 -4.60209,-10.915337 -0.68927,-0.429386 -0.69242,-0.423709 -3.26469,5.879651 -2.60957,6.394774 -2.73495,6.115104 2.73861,6.10864 2.03436,-0.0026 4.02284,-0.0912 4.41884,-0.197325 z M 1.50896,-73.43046 c -0.0842,-0.22 -0.11571,-7.96 -0.07,-17.2 l 0.0832,-16.8 h 12.96 12.96 v 2.88 2.88 l -9.36976,0.0849 -9.36977,0.0849 -0.31023,0.81598 c -0.4026,1.058919 -0.40132,5.933102 0.002,6.993489 l 0.31204,0.820831 h 8.16792 8.16792 v 3.04 3.04 H 16.87436 8.70644 l -0.31208,0.820832 c -0.17173,0.451456 -0.31216,3.547456 -0.31216,6.88 v 6.059168 H 4.87216 c -2.27302,0 -3.25475,-0.116762 -3.3632,-0.4 z m 33.27999,0 c -0.0842,-0.22 -0.11571,-7.96 -0.07,-17.2 l 0.0832,-16.8 h 12.8 12.8 v 2.88 2.88 l -9.44,0.16 -9.44,0.16 -0.0935,3.2 c -0.0515,1.76 -0.0128,3.524 0.0861,3.92 l 0.17965,0.72 h 8.15392 8.15389 v 3.04 3.04 h -8.12576 c -7.11443,0 -8.14995,0.063 -8.32,0.506173 -0.10685,0.278393 -0.19424,1.922617 -0.19424,3.653827 0,1.73121 0.0874,3.375434 0.19424,3.653827 0.17101,0.445677 1.31837,0.506173 9.6,0.506173 h 9.40576 v 3.04 3.04 H 47.75216 c -9.95302,0 -12.84419,-0.08921 -12.9632,-0.4 z m -213.10676,-45.25015 c -10.63134,-2.26854 -16.66073,-12.94218 -13.12469,-23.23424 1.86121,-5.41729 6.25603,-9.53955 11.98277,-11.23963 0.95595,-0.28379 2.17995,-0.51819 2.72,-0.52088 0.75165,-0.004 0.86936,-0.0776 0.50192,-0.3151 -0.3305,-0.21358 0.36718,-0.3102 2.24,-0.3102 1.87283,0 2.5705,0.0966 2.24,0.3102 -0.36604,0.23656 -0.2411,0.31136 0.52629,0.3151 2.58915,0.0126 7.02456,2.03004 9.74232,4.43125 8.14697,7.1981 7.40273,21.09512 -1.46876,27.42568 -2.45293,1.75037 -4.28547,2.54278 -7.33926,3.17356 -2.91735,0.60259 -5.07412,0.59298 -8.02059,-0.0357 z m 9.31444,-6.91177 c 0.89893,-0.46347 2.29519,-1.57761 3.1028,-2.47586 4.54458,-5.05467 3.74913,-13.49872 -1.64367,-17.4482 -2.04051,-1.49439 -3.90139,-2.07402 -6.65857,-2.07402 -4.48731,0 -7.83921,2.05976 -9.78324,6.01186 -0.98677,2.00606 -1.05176,2.34607 -1.05176,5.50315 0,2.9711 0.0992,3.57655 0.84735,5.17234 1.09463,2.33479 3.02454,4.24309 5.49843,5.43688 1.84508,0.89035 2.17307,0.94494 5.01422,0.8346 2.51053,-0.0975 3.32468,-0.26483 4.67444,-0.96075 z m 129.08557,7.08034 c -0.968,-0.15772 -2.912,-0.83762 -4.32,-1.5109 -6.20958,-2.96928 -9.792,-8.70309 -9.82638,-15.72752 -0.0181,-3.69867 0.38434,-5.52156 1.89746,-8.59461 2.24257,-4.5545 6.84667,-8.08905 11.86131,-9.10588 1.10682,-0.22443 1.91082,-0.50963 1.78667,-0.63378 -0.12415,-0.12415 1.05827,-0.22352 2.6276,-0.22083 1.96043,0.003 2.70313,0.10197 2.37334,0.3151 -0.36744,0.23745 -0.24973,0.31135 0.50192,0.3151 2.27813,0.0114 6.92805,1.94467 9.0927,3.78048 l 1.11463,0.9453 -2.19458,2.45206 c -2.10055,2.347 -2.22372,2.43107 -2.87463,1.96205 -3.28226,-2.36508 -5.09748,-3.02309 -8.38893,-3.04094 -2.2592,-0.0123 -2.8365,0.10968 -4.53325,0.95756 -2.30487,1.15175 -3.997,2.92116 -5.15461,5.38999 -0.74328,1.58519 -0.84325,2.19675 -0.84325,5.1584 0,2.96165 0.1,3.57321 0.84325,5.1584 1.15761,2.46883 2.84974,4.23824 5.15461,5.38999 1.69852,0.84876 2.28137,0.97161 4.60982,0.97161 3.10729,0 5.04287,-0.61662 7.42533,-2.36551 0.86501,-0.63497 1.70195,-1.15449 1.85988,-1.15449 0.15793,0 1.14443,0.86633 2.19222,1.92517 2.22816,2.25165 2.22489,2.27202 -0.72644,4.52295 -3.81885,2.91257 -8.94009,4.01272 -14.47867,3.1103 z m -96.7431,-0.18714 c -0.33528,-0.54423 -13.65691,-34.03396 -13.65691,-34.3326 0,-0.49211 6.88727,-0.41507 7.27028,0.0813 0.16975,0.22 2.21783,5.584 4.5513,11.92 2.33346,6.336 4.44318,11.72983 4.68825,11.98629 0.28683,0.30013 0.55583,0.35606 0.75494,0.15695 0.17013,-0.17014 2.31421,-5.70796 4.76463,-12.30629 l 4.4553,-11.99695 3.59506,-0.0908 3.59506,-0.0908 -0.18442,0.73083 c -0.10143,0.40196 -3.19991,8.21883 -6.8855,17.37083 l -6.70109,16.64 -3.04605,0.0913 c -1.67532,0.0502 -3.11571,-0.0218 -3.20085,-0.16 z m -124.69691,-17.36008 v -17.2912 l 7.92,0.005 c 8.38159,0.005 10.61489,0.27644 13.22335,1.60718 1.85124,0.94443 3.75407,2.98061 4.72931,5.06074 0.75557,1.6116 0.84734,2.1886 0.84734,5.32735 0,3.40316 -0.0365,3.58728 -1.09888,5.54683 -2.39576,4.41884 -6.03397,6.07543 -14.09178,6.41642 l -4.64934,0.19675 -0.16,5.12 -0.16,5.12 -3.28,0.0912 -3.28,0.0912 z m 16.49324,0.0273 c 4.42536,-2.01016 4.85205,-8.14513 0.71932,-10.34247 -1.2395,-0.65903 -1.80687,-0.73008 -5.85256,-0.73291 l -4.48,-0.003 -0.088,5.42825 c -0.0484,2.98554 -0.017,5.61354 0.07,5.84 0.11761,0.30648 1.20373,0.40996 4.24805,0.40472 3.27427,-0.006 4.34798,-0.12419 5.38328,-0.59446 z m 17.42676,-0.0273 v -17.2912 l 8.72,0.006 c 11.03897,0.007 13.03946,0.36721 16.30884,2.93633 0.71994,0.56574 1.60342,1.77636 2.23999,3.06943 0.97625,1.98303 1.05117,2.36379 1.05117,5.34195 0,2.8383 -0.0995,3.40941 -0.86635,4.97073 -1.001,2.03816 -2.31518,3.39356 -4.57365,4.7171 -1.05676,0.6193 -1.59427,1.14497 -1.58312,1.54828 0.009,0.33584 1.64057,2.96825 3.62508,5.84979 1.9845,2.88153 3.68431,5.43753 3.77735,5.67999 0.13785,0.35924 -0.536,0.44084 -3.64043,0.44084 h -3.8096 l -3.7649,-5.56798 c -2.44632,-3.61791 -4.00996,-5.63369 -4.46463,-5.75562 -1.28989,-0.34592 -5.20257,-0.20747 -5.75394,0.2036 -0.45768,0.34123 -0.54895,1.17583 -0.62116,5.68 l -0.0847,5.28 -3.28,0.0912 -3.28,0.0912 z m 18.6463,-0.77065 c 1.83954,-0.91413 2.60072,-2.21476 2.73504,-4.67339 0.0969,-1.77435 0.002,-2.25242 -0.63474,-3.18986 -1.47872,-2.17768 -2.31404,-2.4173 -8.4266,-2.4173 h -5.44 l -0.0885,5.10716 c -0.0487,2.80893 -0.0134,5.30263 0.0782,5.54155 0.13321,0.34713 1.21184,0.414 5.36847,0.33285 4.30224,-0.084 5.41037,-0.20522 6.40807,-0.70101 z m 99.43371,0.75945 v -17.28 h 3.36 3.36 v 17.28 17.28 h -3.36 -3.36 z m 16.78676,16.88 c -0.0842,-0.22 -0.11571,-7.96 -0.07,-17.2 l 0.0832,-16.8 3.05408,-0.0908 c 2.83388,-0.0842 3.10178,-0.0381 3.7158,0.64 0.36396,0.40193 4.07899,5.23079 8.25565,10.73079 4.17665,5.5 7.78113,10 8.00995,10 0.22882,0 0.50345,-0.22778 0.61028,-0.50617 0.10683,-0.2784 0.19424,-5.10743 0.19424,-10.7312 v -10.22502 l 3.28,0.0912 3.28,0.0912 v 17.12 17.12 l -2.92426,0.0915 -2.92426,0.0915 -8.419,-11.06282 c -5.55693,-7.30196 -8.58788,-11.03032 -8.91575,-10.96724 -0.43547,0.0838 -0.50712,1.44674 -0.58094,11.05128 l -0.08416,10.9557 h -3.20584 c -2.26966,0 -3.25056,-0.11681 -3.35899,-0.4 z m 77.76432,0.0113 c -0.08661,-0.22619 -0.12003,-7.97126 -0.07428,-17.21126 l 0.0832,-16.8 h 3.36 3.36 v 17.12 17.12 l -3.28572,0.0913 c -2.44942,0.068 -3.32581,-0.0134 -3.4432,-0.32 z m 14.1972,0.23035 c -0.19175,-0.19175 13.96117,-33.64878 14.51866,-34.32161 0.22189,-0.26781 1.31943,-0.4 3.32098,-0.4 2.72417,0 3.022,0.0606 3.35483,0.68254 0.62906,1.17537 14.37725,33.61679 14.37725,33.92576 0,0.16521 -1.49895,0.25368 -3.43159,0.20253 l -3.43155,-0.0908 -0.91641,-2.24 c -0.50404,-1.232 -1.25588,-2.996 -1.67072,-3.92 l -0.75434,-1.68 h -7.6788 c -5.79165,0 -7.74244,0.0983 -7.93771,0.4 -0.14238,0.22 -0.90688,1.984 -1.69888,3.92 l -1.44,3.52 -3.21618,0.0905 c -1.7689,0.0498 -3.29689,0.01 -3.39554,-0.0889 z m 22.25585,-14.0158 c 0.52832,-0.38633 0.41113,-0.79532 -1.74237,-6.08 -1.74129,-4.2732 -2.44508,-5.66581 -2.86331,-5.66581 -0.418,0 -1.12406,1.39402 -2.86755,5.66158 -2.16682,5.30373 -2.27685,5.68803 -1.7408,6.08 0.79608,0.58211 8.41895,0.5856 9.21403,0.004 z"
       id="path62"
       inkscape:connector-curvature="0" />
    <rect
       y="-42.310463"
       x="-176.5578"
       height="26.559999"
       width="124.16001"
       id="rect76"
       style="fill:#ffffff" />
  </g>
</svg>
